<svg aria-hidden="true" style="position:absolute;width:0;height:0;overflow:hidden" xmlns="http://www.w3.org/2000/svg"><defs><symbol id="icon-404" viewBox="0 0 42 32"><path fill="#f06d39" style="fill:var(--color1, #f06d39)" opacity=".1" d="M19.086 28.256c9.56 0 17.309-.602 17.309-1.344s-7.75-1.344-17.309-1.344c-9.56 0-17.309.602-17.309 1.344s7.75 1.344 17.309 1.344z"/><path fill="#3f3d56" style="fill:var(--color2, #3f3d56)" opacity=".1" d="M34.417 19.255c-.103-.314-.523-.459-.937-.323a.905.905 0 0 0-.172.075 1.061 1.061 0 0 0-.081-.019.918.918 0 0 0 .026-.276 1.012 1.012 0 0 0 .444-.874 1.003 1.003 0 0 0 .442-.874.975.975 0 0 0 .335-.38c.2-.395.117-.839-.185-.992s-.709.044-.908.439a.964.964 0 0 0-.107.495 1.003 1.003 0 0 0-.442.874 1.003 1.003 0 0 0-.442.874 1.005 1.005 0 0 0-.444.874 1.024 1.024 0 0 0-.42.614.873.873 0 0 0-.181-.193 1.031 1.031 0 0 0-.041-.183c-.136-.414-.501-.667-.815-.563s-.459.522-.323.937a.937.937 0 0 0 .308.451c.008.062.022.124.041.183.079.24.235.426.413.519a.958.958 0 0 0-.034.159 1.034 1.034 0 0 0-.307.607 1.028 1.028 0 0 0-.307.608 1.03 1.03 0 0 0-.204.277c-.2.395-.117.839.185.992s.709-.044.909-.439c.053-.103.087-.215.102-.329.168-.162.276-.376.307-.607.168-.162.277-.376.307-.608.167-.162.274-.376.303-.607.169-.162.278-.376.308-.608a.976.976 0 0 0 .138-.163.966.966 0 0 0 .672-.106c.18.047.37.041.547-.02.413-.135.666-.5.563-.814z"/><path style="fill:var(--color3, #000)" opacity=".01" d="M33.687 18.017a.882.882 0 0 1-.14.112.948.948 0 0 1-.045.343 1.05 1.05 0 0 0 .186-.456zM34.129 17.143a.882.882 0 0 1-.14.112.948.948 0 0 1-.045.343 1.05 1.05 0 0 0 .186-.455zM33.126 16.818a.904.904 0 0 1 .007-.18 1.013 1.013 0 0 0-.257.42.922.922 0 0 1 .25-.24zM30.318 22.109a.99.99 0 0 1 .12-.138c.007-.055.019-.11.035-.163a1.021 1.021 0 0 0-.155.3zM30.626 21.502a.99.99 0 0 1 .12-.138.958.958 0 0 1 .034-.159 1.041 1.041 0 0 0-.154.296zM33.244 18.891a.893.893 0 0 1-.14.112.884.884 0 0 1-.026.276.733.733 0 0 1 .081.019c.055-.03.113-.055.172-.075.415-.136.834.009.937.323a.47.47 0 0 1 .013.244c.136-.16.193-.356.134-.535-.103-.314-.523-.459-.937-.323a.905.905 0 0 0-.172.075 1.061 1.061 0 0 0-.081-.019c.008-.033.013-.065.018-.097zM30.167 22.414a1.021 1.021 0 0 0-.156.303.941.941 0 0 1 .122-.138.93.93 0 0 1 .034-.165zM32.682 17.692a.904.904 0 0 1 .007-.18 1.013 1.013 0 0 0-.257.42.922.922 0 0 1 .25-.24zM32.043 21.257a.978.978 0 0 1-.041.178 1.044 1.044 0 0 0 .151-.303.937.937 0 0 1-.111.125zM31.428 22.472a.978.978 0 0 1-.041.178 1.05 1.05 0 0 0 .152-.303 1.012 1.012 0 0 1-.111.125zM31.735 21.864a.978.978 0 0 1-.041.178.96.96 0 0 0 .153-.301.934.934 0 0 1-.113.122zM32.35 20.65a.998.998 0 0 1-.041.178 1.044 1.044 0 0 0 .152-.306.894.894 0 0 1-.111.127zM30.339 19.115c.314-.103.679.149.815.563.019.06.033.121.041.184.07.055.131.119.181.193.019-.081.047-.16.085-.234.014-.028.03-.054.046-.081a.847.847 0 0 0-.163-.17 1.031 1.031 0 0 0-.041-.183c-.136-.414-.501-.667-.815-.563-.179.059-.303.22-.351.425a.475.475 0 0 1 .203-.132zM31.797 19.44a.891.891 0 0 1 .007-.179 1.013 1.013 0 0 0-.257.42.936.936 0 0 1 .25-.24zM32.239 18.566a.891.891 0 0 1 .007-.179 1.024 1.024 0 0 0-.257.419.922.922 0 0 1 .25-.24zM31.121 23.079a.989.989 0 0 1-.041.179c.067-.093.118-.196.152-.305a1.021 1.021 0 0 1-.111.126z"/><path fill="#3f3d56" style="fill:var(--color2, #3f3d56)" opacity=".1" d="M35.02 15.215a.954.954 0 0 0 .335-.38c.2-.395.117-.839-.184-.992s-.709.044-.909.439a.97.97 0 0 0-.107.496 1.003 1.003 0 0 0-.442.874 1.03 1.03 0 0 0-.397.53.853.853 0 0 1 .439-.326.49.49 0 0 0 .25.292.498.498 0 0 0 .383.027.85.85 0 0 1 0 .546.964.964 0 0 0 .192-.633 1.005 1.005 0 0 0 .443-.874h-.002z"/><path fill="#f06d39" style="fill:var(--color1, #f06d39)" opacity=".1" d="M39.882 9.61a2.86 2.86 0 0 0 .355-.197l-1.317-.962 1.548.797a2.944 2.944 0 0 0 1.099-2.049l-2.63.027 2.636-.441a2.926 2.926 0 0 0-1.065-2.066 2.931 2.931 0 0 0-4.742 2.81 2.938 2.938 0 0 0-.54.326l1.375 1.911-1.65-1.673a2.931 2.931 0 0 0-.821 2.672 2.93 2.93 0 0 0 1.507 5.576 2.934 2.934 0 0 0 2.609-3.496 2.932 2.932 0 0 0 1.637-3.237z"/><path style="fill:var(--color3, #000)" opacity=".01" d="M34.388 8.864a2.925 2.925 0 0 0-.259 1.902 2.93 2.93 0 0 0 1.507 5.576 2.934 2.934 0 0 0 2.609-3.496c.575-.267-3.709-4.277-3.857-3.983z"/><path fill="#f06d39" style="fill:var(--color1, #f06d39)" opacity=".1" d="M37.693 4.618a.435.435 0 1 0 0-.87.435.435 0 0 0 0 .87zM40.236 4.898a.435.435 0 1 0 0-.87.435.435 0 0 0 0 .87zM41.217 8.809a.435.435 0 1 0 0-.87.435.435 0 0 0 0 .87zM39.893 10.763a.435.435 0 1 0 0-.87.435.435 0 0 0 0 .87zM38.085 14.82a.435.435 0 1 0 0-.87.435.435 0 0 0 0 .87z"/><path style="fill:var(--color3, #000)" opacity=".01" d="M38.085 14.82a.435.435 0 1 0 0-.87.435.435 0 0 0 0 .87z"/><path fill="#f06d39" style="fill:var(--color1, #f06d39)" opacity=".1" d="M34.064 10.225a.435.435 0 1 0 0-.87.435.435 0 0 0 0 .87z"/><path style="fill:var(--color3, #000)" opacity=".01" d="M34.064 10.225a.435.435 0 1 0 0-.87.435.435 0 0 0 0 .87zM33.6 16.95c-.29-.146-.377-.56-.208-.942a.542.542 0 0 0-.026.048c-.2.395-.117.839.184.992s.709-.044.908-.439c.009-.016.016-.033.023-.049-.207.363-.593.538-.882.391zM33.17 17.8c-.289-.146-.377-.56-.208-.943a1.13 1.13 0 0 0-.026.048c-.2.395-.117.839.184.992s.709-.044.909-.439l.023-.049c-.208.363-.593.538-.883.391zM32.74 18.65c-.289-.146-.377-.56-.208-.942a.542.542 0 0 0-.026.048c-.2.395-.117.839.185.992s.708-.044.908-.439l.023-.049c-.207.363-.593.538-.883.391zM32.311 19.502c-.29-.146-.377-.56-.208-.942l-.026.048c-.2.395-.117.839.185.992s.709-.044.908-.439c.009-.016.016-.033.023-.049-.209.361-.594.535-.882.391zM31.88 20.35c-.29-.146-.377-.56-.208-.942a.542.542 0 0 0-.026.048c-.2.395-.117.839.184.992s.709-.044.909-.439l.023-.049c-.207.363-.593.538-.883.391zM31.45 21.2c-.289-.146-.377-.56-.208-.942a.542.542 0 0 0-.026.048c-.2.395-.117.839.185.992s.707-.044.91-.439l.023-.049c-.21.363-.593.538-.885.391zM31.02 22.05c-.289-.146-.377-.56-.208-.942-.009.016-.018.031-.026.048-.2.395-.117.839.185.992s.709-.044.908-.439c.009-.016.016-.033.023-.049-.207.363-.593.538-.883.391zM30.59 22.901c-.29-.146-.377-.56-.208-.942a.542.542 0 0 0-.026.048c-.2.395-.117.839.184.992s.709-.044.909-.439l.023-.049c-.207.363-.593.536-.882.391z"/><path style="fill:var(--color3, #000)" opacity=".01" d="M30.307 23.459c-.289-.147-.377-.56-.208-.943a1.13 1.13 0 0 0-.026.048c-.2.395-.117.839.184.992s.709-.044.909-.439l.023-.049c-.208.363-.593.538-.883.391z"/><path fill="#f06d39" style="fill:var(--color1, #f06d39)" opacity=".1" d="M38.078 19.676c.045-.129.072-.263.081-.399a.219.219 0 0 0 .159-.07c.02-.022.036-.048.046-.076s.014-.058.011-.088c-.002-.03-.011-.059-.025-.085s-.033-.05-.057-.068a.211.211 0 0 0-.168-.045 1.515 1.515 0 0 0-.8-1.031.217.217 0 1 0-.408-.138c-.239-.044-.485-.031-.718.038s-.446.194-.621.363a1.576 1.576 0 0 0-.4-.012l-.176.803-.011-.774a1.53 1.53 0 0 0-.979.702 1.52 1.52 0 0 0 .119 1.741 1.533 1.533 0 0 0 1.065.564c.207.016.414-.009.611-.075a.211.211 0 0 0 .092.088.218.218 0 0 0 .298-.28c.069-.048.135-.101.195-.16a1.525 1.525 0 0 0 1.601-.808l-.821-.138.905-.053z"/><path style="fill:var(--color3, #000)" opacity=".01" d="M36.81 20.066c-.303-.4-.489-.874-.703-1.328a5.538 5.538 0 0 0-.288-.544l-.16-.187c-.027.023-.054.046-.081.071a1.576 1.576 0 0 0-.4-.012l-.176.803-.011-.774a1.53 1.53 0 0 0-.979.702 1.52 1.52 0 0 0 .119 1.741 1.533 1.533 0 0 0 1.065.564c.207.016.414-.009.611-.075a.211.211 0 0 0 .092.088.218.218 0 0 0 .298-.28c.069-.048.135-.101.195-.16.311.05.631.003.914-.135a2.159 2.159 0 0 1-.494-.474z"/><path fill="#f06d39" style="fill:var(--color1, #f06d39)" opacity=".1" d="M31.444 18.347c.017-.033.025-.07.023-.107s-.013-.073-.032-.105a.213.213 0 0 0-.185-.103 1.52 1.52 0 0 0-.477-.848c.04-.155.055-.316.045-.476l-.8-.136.777-.049a1.582 1.582 0 0 0-.057-.215.212.212 0 0 0 .093-.207.217.217 0 0 0-.29-.177 1.525 1.525 0 0 0-2.72 1.26.217.217 0 0 0 .038.412c.043.01.088.006.129-.01.078.131.175.25.289.352-.082.322-.058.661.071.968l1.073-.279-.957.503a1.526 1.526 0 0 0 2.437.192c.209-.239.338-.538.37-.854a.211.211 0 0 0 .175-.118z"/><path style="fill:var(--color3, #000)" opacity=".01" d="M31.444 18.347c.017-.033.025-.07.023-.107s-.013-.073-.032-.105a.213.213 0 0 0-.185-.103 1.52 1.52 0 0 0-.477-.848c.007-.026.012-.051.017-.077a.582.582 0 0 0-.079.07c-.145.158-.219.371-.362.531-.169.189-.421.288-.673.314s-.506-.012-.755-.061c-.206-.041-.415-.088-.624-.068a.28.28 0 0 0-.059.008.612.612 0 0 0 .037.035c-.082.322-.058.661.071.968l1.073-.279-.957.503a1.526 1.526 0 0 0 2.437.192c.209-.239.338-.538.37-.854a.211.211 0 0 0 .175-.118z"/><path fill="#3f3d56" style="fill:var(--color2, #3f3d56)" opacity=".1" d="M3.645 20.819c.052-.158.264-.231.472-.163.03.01.059.022.087.037a.271.271 0 0 1 .041-.009.463.463 0 0 1-.013-.139.502.502 0 0 1-.223-.44.495.495 0 0 1-.169-.191.49.49 0 0 1-.054-.249.502.502 0 0 1-.169-.191c-.1-.199-.059-.422.093-.5s.357.022.458.221c.04.077.058.163.054.25a.502.502 0 0 1 .223.44.502.502 0 0 1 .223.44.502.502 0 0 1 .223.44.494.494 0 0 1 .21.309.42.42 0 0 1 .091-.097.49.49 0 0 1 .021-.092c.069-.208.252-.336.411-.285s.231.263.163.472a.474.474 0 0 1-.155.228.49.49 0 0 1-.229.353.467.467 0 0 1 .017.081.507.507 0 0 1 .154.306.507.507 0 0 1 .154.306c.042.04.077.088.103.14.101.199.059.423-.093.499s-.357-.022-.458-.221a.485.485 0 0 1-.051-.166.519.519 0 0 1-.155-.306.519.519 0 0 1-.155-.306.507.507 0 0 1-.154-.306.507.507 0 0 1-.154-.306.49.49 0 0 1-.07-.081.49.49 0 0 1-.339-.053.469.469 0 0 1-.275-.01c-.207-.069-.334-.252-.282-.411z"/><path style="fill:var(--color3, #000)" opacity=".01" d="M4.012 20.195c.022.021.045.04.071.057a.464.464 0 0 0 .023.173.506.506 0 0 1-.094-.229zM3.79 19.755c.022.021.045.04.071.056a.461.461 0 0 0 .023.173.531.531 0 0 1-.094-.229zM4.296 19.591a.452.452 0 0 0-.003-.09.502.502 0 0 1 .129.212.468.468 0 0 0-.126-.121zM5.709 22.256a.495.495 0 0 0-.06-.069.53.53 0 0 0-.018-.081.535.535 0 0 1 .078.151zM5.553 21.951a.495.495 0 0 0-.06-.069.431.431 0 0 0-.017-.081.52.52 0 0 1 .077.15l.001.001zM4.236 20.636a.42.42 0 0 0 .07.056.432.432 0 0 0 .013.139c-.014.002-.027.006-.041.009a.474.474 0 0 0-.087-.037c-.209-.068-.42.004-.472.163a.24.24 0 0 0-.007.122.28.28 0 0 1-.067-.269c.052-.158.264-.231.472-.163.03.01.059.022.087.037a.271.271 0 0 1 .041-.009.405.405 0 0 1-.009-.048zM5.786 22.41a.535.535 0 0 1 .078.153.569.569 0 0 0-.06-.07.584.584 0 0 0-.018-.083zM4.519 20.032a.452.452 0 0 0-.003-.09.502.502 0 0 1 .129.211.468.468 0 0 0-.126-.121zM4.841 21.828c.004.03.01.06.02.09a.517.517 0 0 1-.077-.154.492.492 0 0 0 .057.064zM5.15 22.439c.004.03.011.06.02.09a.506.506 0 0 1-.076-.151.55.55 0 0 0 .056.062zM4.996 22.133c.004.03.01.06.02.09a.506.506 0 0 1-.076-.151.476.476 0 0 0 .057.062zM4.686 21.521c.004.031.01.061.02.09a.61.61 0 0 1-.075-.151.46.46 0 0 0 .055.062zM5.699 20.748c-.158-.052-.342.075-.411.285a.49.49 0 0 0-.021.092.42.42 0 0 0-.091.097.49.49 0 0 0-.043-.118l-.023-.041a.472.472 0 0 1 .081-.086.49.49 0 0 1 .021-.092c.069-.208.252-.336.411-.285a.279.279 0 0 1 .177.214.24.24 0 0 0-.102-.067zM4.964 20.912a.452.452 0 0 0-.003-.09.502.502 0 0 1 .129.212.468.468 0 0 0-.126-.121zM4.742 20.472a.452.452 0 0 0-.003-.09.502.502 0 0 1 .129.212.468.468 0 0 0-.126-.121zM5.305 22.745a.534.534 0 0 0 .02.09.475.475 0 0 1-.076-.152.55.55 0 0 0 .056.062z"/><path fill="#3f3d56" style="fill:var(--color2, #3f3d56)" opacity=".1" d="M3.34 18.783a.495.495 0 0 1-.169-.191c-.101-.199-.059-.423.093-.5s.357.022.458.221a.49.49 0 0 1 .054.249.502.502 0 0 1 .223.44.487.487 0 0 1 .2.267.434.434 0 0 0-.221-.163.248.248 0 0 1-.126.149.25.25 0 0 1-.193.015.431.431 0 0 0 0 .275.535.535 0 0 1-.095-.319.502.502 0 0 1-.223-.44l-.001-.002z"/><path fill="#f06d39" style="fill:var(--color1, #f06d39)" opacity=".1" d="M.892 15.959a1.482 1.482 0 0 1-.179-.099l.663-.485-.78.401a1.48 1.48 0 0 1-.553-1.032l1.325.014-1.328-.222a1.48 1.48 0 0 1 2.233-1.186 1.491 1.491 0 0 1 .688.959c.043.199.044.403.004.602.096.044.187.099.272.163l-.692.963.831-.842a1.48 1.48 0 0 1 .413 1.346 1.485 1.485 0 0 1 .854 1.315 1.48 1.48 0 0 1-2.862.546 1.473 1.473 0 0 1-.066-.813A1.473 1.473 0 0 1 .89 15.96z"/><path style="fill:var(--color3, #000)" opacity=".01" d="M3.659 15.584c.15.296.196.633.13.958a1.485 1.485 0 0 1 .854 1.315 1.48 1.48 0 0 1-2.862.546 1.473 1.473 0 0 1-.066-.813c-.29-.135 1.868-2.154 1.943-2.006z"/><path fill="#f06d39" style="fill:var(--color1, #f06d39)" opacity=".1" d="M1.994 13.445a.22.22 0 1 0 0-.44.22.22 0 0 0 0 .44zM.713 13.586a.22.22 0 1 0 0-.438.22.22 0 1 0 0 .438zM.22 15.557a.22.22 0 1 0 0-.44.22.22 0 0 0 0 .44zM.886 16.541a.22.22 0 1 0 0-.44.22.22 0 0 0 0 .44zM1.797 18.585a.22.22 0 1 0 0-.44.22.22 0 0 0 0 .44z"/><path style="fill:var(--color3, #000)" opacity=".01" d="M1.797 18.585a.22.22 0 1 0 0-.44.22.22 0 0 0 0 .44z"/><path fill="#f06d39" style="fill:var(--color1, #f06d39)" opacity=".1" d="M3.822 16.27a.22.22 0 1 0 0-.44.22.22 0 0 0 0 .44z"/><path style="fill:var(--color3, #000)" opacity=".01" d="M3.822 16.27a.22.22 0 1 0 0-.44.22.22 0 0 0 0 .44zM4.056 19.657c.146-.074.19-.282.105-.475l.013.024c.101.199.059.423-.093.5s-.357-.022-.457-.221l-.012-.025c.105.183.299.271.445.197zM4.273 20.086c.146-.074.19-.283.105-.475l.013.024c.101.199.059.423-.093.5s-.357-.022-.457-.221l-.012-.025c.105.184.299.271.444.197zM4.489 20.514c.146-.074.19-.282.105-.475a.283.283 0 0 1 .013.024c.101.199.059.423-.093.499s-.357-.022-.457-.221l-.012-.025c.104.183.299.271.444.197zM4.706 20.942c.146-.074.19-.282.105-.475l.013.024c.101.199.059.423-.093.5s-.357-.022-.458-.221a.272.272 0 0 1-.011-.025c.104.182.299.271.444.197zM4.923 21.37c.146-.074.19-.282.105-.474l.013.024c.101.199.059.423-.093.5s-.357-.022-.458-.221a.592.592 0 0 0-.012-.025c.105.182.299.27.445.197zM5.139 21.799c.146-.074.19-.282.105-.475l.013.024c.101.199.059.423-.093.5s-.357-.022-.458-.221l-.012-.025c.105.181.299.271.445.197zM5.356 22.227c.145-.074.19-.283.105-.475a.283.283 0 0 1 .013.024c.101.199.059.423-.093.5s-.357-.022-.457-.221a.592.592 0 0 0-.012-.025c.105.182.299.271.445.197zM5.572 22.655c.146-.074.19-.282.105-.475a.283.283 0 0 1 .013.024c.101.199.059.423-.093.499s-.357-.022-.457-.221l-.012-.025c.105.183.299.271.444.197z"/><path style="fill:var(--color3, #000)" opacity=".01" d="M5.716 22.936c.146-.074.19-.282.105-.475l.013.024c.101.199.059.423-.093.499s-.357-.022-.458-.221l-.012-.025c.103.184.298.271.445.197z"/><path fill="#f06d39" style="fill:var(--color1, #f06d39)" opacity=".1" d="M1.801 21.031a.764.764 0 0 1-.041-.201.104.104 0 0 1-.08-.035.11.11 0 0 1-.017-.125.116.116 0 0 1 .114-.057.758.758 0 0 1 .403-.519.111.111 0 0 1 .049-.148.111.111 0 0 1 .158.078.778.778 0 0 1 .675.203.774.774 0 0 1 .204-.006l.089.404.002-.39a.767.767 0 1 1-.41 1.478.111.111 0 0 1-.111.055.11.11 0 0 1-.092-.087.124.124 0 0 1 .006-.066.767.767 0 0 1-.098-.081.774.774 0 0 1-.806-.408l.413-.07-.455-.027z"/><path style="fill:var(--color3, #000)" opacity=".01" d="M2.439 21.227c.153-.204.246-.44.354-.669a2.56 2.56 0 0 1 .145-.274l.081-.094.041.036a.774.774 0 0 1 .204-.006l.089.404.001-.388a.767.767 0 1 1-.41 1.478.111.111 0 0 1-.111.055.11.11 0 0 1-.092-.087.115.115 0 0 1 .006-.066.767.767 0 0 1-.098-.081.78.78 0 0 1-.461-.068 1.08 1.08 0 0 0 .251-.24z"/><path fill="#f06d39" style="fill:var(--color1, #f06d39)" opacity=".1" d="M5.142 20.361c-.007-.013-.01-.027-.012-.041s.001-.029.005-.042c.005-.014.012-.026.021-.037s.021-.02.034-.026a.106.106 0 0 1 .05-.012.767.767 0 0 1 .24-.428.745.745 0 0 1-.022-.24l.403-.068-.391-.025a.78.78 0 0 1 .029-.108.102.102 0 0 1-.036-.041.107.107 0 0 1 .016-.122.107.107 0 0 1 .119-.031.77.77 0 0 1 1.356.201.76.76 0 0 1 .015.433c.019.008.036.022.047.039s.018.037.019.058a.108.108 0 0 1-.06.101c-.014.007-.029.011-.045.012s-.031-.002-.046-.008a.77.77 0 0 1-.145.177.774.774 0 0 1-.035.489l-.539-.142.482.254a.767.767 0 0 1-1.416-.333.113.113 0 0 1-.088-.06z"/><path style="fill:var(--color3, #000)" opacity=".01" d="M5.142 20.361c-.007-.013-.01-.027-.012-.041s.001-.029.005-.042c.005-.014.012-.026.021-.037s.021-.02.034-.026a.106.106 0 0 1 .05-.012.767.767 0 0 1 .24-.428l-.009-.038c.015.01.028.022.041.035.073.081.11.187.182.268.09.093.211.149.339.158.127.009.256-.002.38-.031.103-.026.208-.038.314-.035l.03.004-.019.017a.774.774 0 0 1-.035.489l-.54-.142.482.254a.767.767 0 0 1-1.416-.333.113.113 0 0 1-.088-.06z"/><path fill="#f06d39" style="fill:var(--color1, #f06d39)" opacity=".1" d="M14.106 2.114a.824.824 0 0 0-.478.052.708.708 0 0 1-.574 0 .806.806 0 0 0-.675.013.413.413 0 0 1-.194.048c-.274 0-.501-.276-.549-.639a.533.533 0 0 0 .137-.147c.16-.259.407-.425.688-.425s.525.163.685.42c.048.077.115.141.195.184s.169.066.26.066h.007c.216-.001.404.173.499.428z"/><path fill="#f06d39" style="fill:var(--color1, #f06d39)" opacity=".1" d="m14.938.974-.442.281.268-.489a.434.434 0 0 0-.268-.095h-.007a.57.57 0 0 1-.092-.007l-.15.095.064-.117a.532.532 0 0 1-.262-.198l-.269.168.169-.308A.784.784 0 0 0 13.348 0c-.279 0-.529.166-.688.425a.512.512 0 0 1-.455.244h-.013c-.308 0-.558.349-.558.78s.25.78.558.78a.422.422 0 0 0 .194-.048.802.802 0 0 1 .675-.013.708.708 0 0 0 .574 0 .818.818 0 0 1 .669.013.413.413 0 0 0 .192.047c.308 0 .558-.349.558-.78a.99.99 0 0 0-.117-.474zM4.902 7.756a1.175 1.175 0 0 0-.683.074.999.999 0 0 1-.82-.002 1.138 1.138 0 0 0-.964.02.599.599 0 0 1-.278.069c-.391 0-.716-.394-.784-.913a.745.745 0 0 0 .196-.211c.229-.369.584-.607.983-.607s.749.235.977.6a.752.752 0 0 0 .652.357h.01c.309 0 .578.249.712.613z"/><path fill="#f06d39" style="fill:var(--color1, #f06d39)" opacity=".1" d="m6.091 6.125-.632.401.384-.698a.619.619 0 0 0-.382-.136h-.01a.716.716 0 0 1-.131-.01l-.213.138.092-.167a.764.764 0 0 1-.375-.285l-.384.244.242-.444c-.224-.269-.527-.434-.859-.434-.399 0-.754.237-.983.606a.731.731 0 0 1-.651.35h-.022c-.44 0-.797.499-.797 1.115s.357 1.115.797 1.115a.588.588 0 0 0 .278-.07 1.144 1.144 0 0 1 .964-.018 1 1 0 0 0 .82.002 1.147 1.147 0 0 1 .956.018.597.597 0 0 0 .274.068c.44 0 .797-.499.797-1.115a1.419 1.419 0 0 0-.165-.681zM30.463 3.702a.824.824 0 0 1 .478.052.708.708 0 0 0 .574 0 .81.81 0 0 1 .675.013c.06.032.127.048.194.048.274 0 .502-.276.549-.639a.533.533 0 0 1-.137-.147c-.16-.259-.409-.427-.689-.427s-.525.163-.685.42a.525.525 0 0 1-.456.251h-.007c-.217 0-.406.174-.497.428z"/><path fill="#f06d39" style="fill:var(--color1, #f06d39)" opacity=".1" d="m29.629 2.562.442.28-.269-.489a.434.434 0 0 1 .268-.095h.007a.57.57 0 0 0 .092-.007l.15.095-.064-.117a.537.537 0 0 0 .265-.197l.268.17-.17-.308a.782.782 0 0 1 .602-.304c.279 0 .529.166.688.425a.512.512 0 0 0 .455.244h.015c.308 0 .558.349.558.78s-.25.78-.558.78a.422.422 0 0 1-.194-.048.802.802 0 0 0-.675-.013.708.708 0 0 1-.574 0 .818.818 0 0 0-.669.013.413.413 0 0 1-.192.047c-.308 0-.558-.349-.558-.78a.985.985 0 0 1 .115-.476zM25.073 31.636c2.587 0 4.684-.365 4.684-.814s-2.097-.814-4.684-.814-4.684.365-4.684.814 2.097.814 4.684.814z"/><path fill="#d0d2d5" style="fill:var(--color4, #d0d2d5)" d="m22.622 26.953-7.257-.093.022-.186.351-3.07h6.373l.469 3.07.036.233.007.046z"/><path style="fill:var(--color3, #000)" opacity=".1" d="M22.615 26.907h-3.622l-3.629-.047.022-.186h7.193l.036.233z"/><path fill="#d0d2d5" style="fill:var(--color4, #d0d2d5)" d="M23.785 26.721h-9.63v.233h9.63v-.233z"/><path fill="#3f3d56" style="fill:var(--color2, #3f3d56)" d="M32.973 5.165a.606.606 0 0 0-.603-.608H5.477a.597.597 0 0 0-.428.179.593.593 0 0 0-.175.429v16.299h28.099v-16.3z"/><path fill="#d0d2d5" style="fill:var(--color4, #d0d2d5)" d="M4.874 21.302v1.909a.604.604 0 0 0 .603.603H32.37a.603.603 0 0 0 .603-.603v-1.909H4.874z"/><path fill="#fff" style="fill:var(--color5, #fff)" d="M31.949 5.579H6.037v14.652h25.912V5.579z"/><path fill="#f06d39" style="fill:var(--color1, #f06d39)" d="M19.063 23.089a.626.626 0 0 0 .543-.312l-.345-.058.373.002a.624.624 0 0 0 .012-.497l-.5.259.461-.339a.62.62 0 0 0-.403-.296.63.63 0 0 0-.67.275.62.62 0 0 0-.077.494.638.638 0 0 0 .332.407.624.624 0 0 0 .275.064z"/><path style="fill:var(--color3, #000)" opacity=".1" d="m19.691 23.813 2.895 2.908-.444-2.908h-2.451z"/><path fill="#444053" style="fill:var(--color6, #444053)" opacity=".1" d="M31.957 5.581H6.017v.856h25.94v-.856z"/><path fill="#f06d39" style="fill:var(--color1, #f06d39)" opacity=".3" d="M22.815 5.73h-7.768a.024.024 0 0 0-.024.024v.474c0 .013.011.024.024.024h7.768a.024.024 0 0 0 .024-.024v-.474a.024.024 0 0 0-.024-.024z"/><path fill="#3f3d56" style="fill:var(--color2, #3f3d56)" d="M22.607 6.044h-.019l-.007-.006a.155.155 0 0 0 .037-.101.156.156 0 0 0-.096-.141.154.154 0 0 0-.21.114c-.006.03-.003.061.009.089s.032.052.057.069a.155.155 0 0 0 .186-.011l.007.006v.019l.119.119.035-.036-.12-.119zm-.143 0a.108.108 0 0 1-.1-.066.11.11 0 0 1 .023-.117.114.114 0 0 1 .055-.03c.021-.004.043-.002.062.006a.11.11 0 0 1 .058.141.101.101 0 0 1-.058.058.115.115 0 0 1-.041.008z"/><path fill="#fa5959" style="fill:var(--color7, #fa5959)" opacity=".8" d="M6.483 6.166a.157.157 0 1 0 0-.314.157.157 0 1 0 0 .314z"/><path fill="#fed253" style="fill:var(--color8, #fed253)" opacity=".8" d="M6.914 6.166a.157.157 0 1 0 0-.314.157.157 0 1 0 0 .314z"/><path fill="#8ccf4d" style="fill:var(--color9, #8ccf4d)" opacity=".8" d="M7.346 6.166a.157.157 0 1 0 0-.314.157.157 0 1 0 0 .314z"/><path fill="#f06d39" style="fill:var(--color1, #f06d39)" d="M20.366 11.866c-.356-.472-.871-.77-1.444-.77s-1.089.298-1.444.77a1.567 1.567 0 0 0 .994.905 1.561 1.561 0 0 0 1.894-.906z"/><path fill="#f06d39" style="fill:var(--color1, #f06d39)" d="M17.218 12.102c.022.016.046.03.072.041.273.552.838.974 1.487 1.009v2.616c-.491-.029-.884-.277-1.214-.662a.79.79 0 0 0-.069.059c-.027.026-.047.059-.055.096s-.006.075.007.111c.018.049.023.101.013.152s-.032.099-.065.138a.296.296 0 0 1-.279.097.294.294 0 0 1-.221-.195c-.016-.049-.019-.102-.009-.153s.035-.098.07-.136c.01-.012.022-.022.034-.032a.195.195 0 0 1 .023-.017c.045-.162.151-.308.324-.442a2.627 2.627 0 0 1-.348-1.086.63.63 0 0 0-.075.005c-.034.005-.066.018-.093.04s-.047.05-.058.082a.294.294 0 0 1-.515.064.294.294 0 0 1 .276-.458.512.512 0 0 1 .144-.072c.101-.031.205-.048.31-.05.01-.272.062-.54.152-.797a1.14 1.14 0 0 1-.185-.13.575.575 0 0 1-.135-.178.203.203 0 0 0-.078-.081.295.295 0 0 1-.131-.351.291.291 0 0 1 .233-.193c.052-.008.106-.001.156.019s.092.054.123.097a.29.29 0 0 1 .027.301c.018.04.045.075.079.102z"/><path style="fill:var(--color3, #000)" d="M27.736 30.347a.394.394 0 0 0-.088-.098c-.178-.168-.261-.415-.305-.657s-.057-.489-.127-.725a2.393 2.393 0 0 0-.143-.353c-.041-.087-.092-.258-.167-.319a.111.111 0 0 0-.051-.025.591.591 0 0 0-.147-.196c-.116-.105-.259-.189-.336-.326a.725.725 0 0 0-.079-.134c-.053-.058-.136-.081-.184-.143-.063-.079-.049-.192-.041-.293s0-.221-.087-.274c-.052-.032-.119-.029-.173-.057-.081-.041-.114-.143-.112-.235s.03-.181.037-.272c.023-.292-.169-.582-.095-.864.028-.107.092-.2.14-.3a.65.65 0 0 0 .041-.103c.127.05.261.083.397.096-.224-.503-.167-1.088-.272-1.629l.013-.018a.844.844 0 0 0 .172-.483c0-.201-.094-.389-.136-.586-.036-.167-.035-.342-.081-.507a1.57 1.57 0 0 0-.129-.294 5.884 5.884 0 0 0-.16-.278l-.157-.518c-.073-.242-.149-.489-.291-.698-.052-.077-.068-.232-.148-.279a.354.354 0 0 0-.212-.037c-.113-.064-.213-.155-.227-.281a.276.276 0 0 1 .008-.081h.014c.179-.016.27-.174.363-.313.151-.224.093-.527 0-.782a.53.53 0 0 0-.122-.215c-.131-.122-.338-.095-.506-.154-.057-.02-.11-.049-.167-.063-.112-.026-.229.011-.332.062s-.198.119-.306.159c-.108.041-.24.073-.267.183a.21.21 0 0 0 .009.111.414.414 0 0 0 .126.182.722.722 0 0 0 .171.859c.078.07.171.121.271.152.031.05.06.1.086.152a.504.504 0 0 1 .071.296.863.863 0 0 0-.081.1c-.117.163-.183.354-.244.544a5.779 5.779 0 0 0-.197.744c-.099.211-.221.413-.293.635-.129 0-.258-.017-.382-.051l-.344-.078c-.12-.027-.244-.057-.338-.136-.05-.041-.088-.095-.139-.135s-.152-.088-.207-.054a.118.118 0 0 0-.028.022c-.051-.102-.099-.204-.157-.303-.084-.138-.21-.265-.369-.292a.38.38 0 0 0-.277.064c-.093.066-.151.204-.081.296.017.021.036.04.057.058.047.054.089.113.126.175a.894.894 0 0 0 .549.357l-.014.041c-.029.085-.09.187-.075.275l1.529.523a.93.93 0 0 0 .308.068.504.504 0 0 0 .122-.016v.081c.004.537-.081 1.071-.097 1.607-.003.098 0 .204.062.28.069.084.192.101.299.081a.643.643 0 0 0 .076-.017c.036.135.062.273.078.412l.101.727c.013.074.018.15.016.226-.012.171-.102.323-.167.481s-.104.346-.018.494c.027.046.064.084.088.132a.538.538 0 0 1 .041.231l.018.659a.075.075 0 0 0-.051.01c-.085.066-.075.38-.081.477-.007.163 0 .329-.009.494a2.956 2.956 0 0 1-.106.655.432.432 0 0 1-.093.188.4.4 0 0 1-.166.086 1.907 1.907 0 0 1-.628.086c-.086-.003-.176-.011-.255.022s-.144.122-.115.204c.025.068.1.101.168.127.155.055.305.124.448.206.055.037.113.07.173.098a.926.926 0 0 0 .178.044l.722.125c.148.025.326.041.42-.081.051-.066.058-.156.056-.239-.004-.163-.037-.329-.015-.492a1.45 1.45 0 0 1 .076-.282l.217-.641c.073-.214.146-.43.174-.655.01-.081.009-.174-.053-.225a.155.155 0 0 0-.054-.028c-.002-.196-.028-.393-.017-.589l.012-.147a.766.766 0 0 1 .101.119c.07.109.095.253.202.326.09.062.224.059.288.148.02.034.036.072.046.11a.789.789 0 0 0 .163.259c.024.089.058.176.101.258l.179.379c.061.136.129.269.204.398.057.081.103.17.136.263.057.201-.036.422-.184.57s-.344.233-.536.313a.155.155 0 0 0-.055.033.103.103 0 0 0-.025.071c0 .094.077.175.166.204a.622.622 0 0 0 .278.01c.521-.063 1.039-.19 1.5-.443a.538.538 0 0 0 .179-.138c.024-.029.039-.065.044-.102s0-.075-.014-.11z"/><path fill="#2f2e41" style="fill:var(--color10, #2f2e41)" d="M25.536 21.215c.087.133.168.27.244.41.053.092.097.19.129.292.047.163.046.337.081.503.041.195.136.382.136.582a.832.832 0 0 1-.172.479 2.291 2.291 0 0 1-.359.371 7.63 7.63 0 0 1-.508-2.493.877.877 0 0 1 .038-.35c.026-.069.154-.259.235-.184.03.027.037.15.056.191.034.07.074.136.119.2z"/><path style="fill:var(--color3, #000)" opacity=".1" d="M25.536 21.215c.087.133.168.27.244.41.053.092.097.19.129.292.047.163.046.337.081.503.041.195.136.382.136.582a.832.832 0 0 1-.172.479 2.291 2.291 0 0 1-.359.371 7.63 7.63 0 0 1-.508-2.493.877.877 0 0 1 .038-.35c.026-.069.154-.259.235-.184.03.027.037.15.056.191.034.07.074.136.119.2z"/><path fill="#d0d2d5" style="fill:var(--color4, #d0d2d5)" d="M14.798 15.659c-.322.322-.361.463-.554.527s-.889.424-.671.824l.605.4.09.27-.889 1.583s-1.466-.67-1.61.321-.053 1.262-.091 1.792c-.039.529.013.683-.116.683s-.18-.348-.18-.348l-.022-.046c-.192-.399-1.494-3.325.592-5.337 0 0 .966-.064 1.199-1.171.16-.766.722-.7 1.095-.544.121.048.234.114.335.197.09.086.171.181.24.285.106.168.164.378-.02.563z"/><path style="fill:var(--color3, #000)" opacity=".1" d="m14.179 17.41.09.27-.889 1.583s-1.466-.67-1.61.321-.053 1.262-.091 1.792c-.039.529.013.683-.116.683s-.18-.348-.18-.348l-.022-.046c-.065-.495-.393-3.392.797-3.238 0 0 .966.451 1.12.271.122-.143.665-.962.885-1.299l.017.009zM14.819 15.094l-.588.668s-.683.914-.825.875a.699.699 0 0 0-.129-.015.25.25 0 0 1-.227-.299.247.247 0 0 1 .064-.124c.233-.244.662-.708.69-.811s.301-.555.438-.776c.121.048.234.114.335.197.091.085.172.181.242.285z"/><path fill="#454b69" style="fill:var(--color11, #454b69)" d="M31.458 24.708c-.1.2-.611.948-.835 1.275l-.105.154s-.041.27-.708-.065-16.351-6.952-16.351-6.952l-.106-.319.774-1.159 17.19 6.641s.27.167.141.425z"/><path style="fill:var(--color3, #000)" opacity=".1" d="m30.624 25.983-.105.154s-.041.27-.708-.065S13.46 19.12 13.46 19.12l-.106-.319 17.271 7.182z"/><path fill="#fbbebe" style="fill:var(--color12, #fbbebe)" d="M21.164 21.661c-.159-.026-.336-.013-.46.09a.377.377 0 0 0-.132.251c-.011.113.055.247.168.255a.55.55 0 0 0 .081-.005c.072 0 .143.006.213.018a.88.88 0 0 0 .743-.3c.097-.122-.031-.175-.146-.2-.157-.033-.311-.084-.468-.11z"/><path fill="#3f3d56" style="fill:var(--color2, #3f3d56)" d="m23.888 25.338.101.718c.013.074.018.149.015.224-.012.169-.102.32-.167.477s-.104.344-.018.489c.026.045.064.084.088.131a.529.529 0 0 1 .041.229l.028 1.018c.314.021.63.02.944-.005a.048.048 0 0 0 .034-.011.057.057 0 0 0 .012-.037c.014-.238-.028-.477-.014-.715.005-.087.017-.174.019-.261.005-.355-.17-.702-.117-1.053.017-.088.038-.176.065-.262.167-.611.132-1.253.095-1.883a.044.044 0 0 0-.008-.029.048.048 0 0 0-.022-.012 1.16 1.16 0 0 0-1.05.2c-.044.036-.156.07-.186.113-.041.059.013.119.036.182.052.158.087.322.105.487z"/><path style="fill:var(--color3, #000)" opacity=".1" d="m23.888 25.338.101.718c.013.074.018.149.015.224-.012.169-.102.32-.167.477s-.104.344-.018.489c.026.045.064.084.088.131a.529.529 0 0 1 .041.229l.028 1.018c.314.021.63.02.944-.005a.048.048 0 0 0 .034-.011.057.057 0 0 0 .012-.037c.014-.238-.028-.477-.014-.715.005-.087.017-.174.019-.261.005-.355-.17-.702-.117-1.053.017-.088.038-.176.065-.262.167-.611.132-1.253.095-1.883a.044.044 0 0 0-.008-.029.048.048 0 0 0-.022-.012 1.16 1.16 0 0 0-1.05.2c-.044.036-.156.07-.186.113-.041.059.013.119.036.182.052.158.087.322.105.487z"/><path fill="#3f3d56" style="fill:var(--color2, #3f3d56)" d="M25.776 25.122c-.048.099-.112.191-.14.297-.074.281.118.57.095.858-.007.091-.035.179-.037.27s.031.192.112.234c.054.028.122.025.173.057.086.053.096.172.087.272s-.023.212.041.29c.048.061.132.084.184.142a.74.74 0 0 1 .079.133c.078.136.22.219.336.326s.215.263.163.411c-.038.108-.146.175-.249.226a2.666 2.666 0 0 1-.593.21.142.142 0 0 1-.068.004.135.135 0 0 1-.059-.041c-.12-.118-.244-.241-.3-.399a.401.401 0 0 0-.046-.109c-.064-.089-.198-.086-.288-.147-.106-.072-.132-.215-.201-.323s-.171-.172-.244-.267c-.125-.158-.155-.369-.244-.549-.038-.077-.086-.148-.116-.228a1.292 1.292 0 0 1-.056-.295c-.057-.476-.204-.955-.112-1.425.02-.103.052-.204.065-.31.022-.184-.013-.373.014-.557.001-.023.007-.046.017-.066s.026-.038.044-.052a.154.154 0 0 1 .07-.014 4.86 4.86 0 0 1 .724.016c.122.012.259.037.332.136.062.086.059.2.079.304.025.128.09.198.158.298s.031.199-.019.303z"/><path fill="#2f2e41" style="fill:var(--color10, #2f2e41)" d="M24.837 28.431c.064 0 .136-.004.185.037.062.051.063.144.053.224a3.394 3.394 0 0 1-.174.652l-.217.636c-.034.091-.06.185-.076.28-.021.163.011.326.015.489 0 .081-.005.172-.056.237-.092.119-.272.105-.419.081l-.721-.122a.828.828 0 0 1-.178-.044 1.276 1.276 0 0 1-.173-.097 2.658 2.658 0 0 0-.448-.204c-.068-.025-.143-.057-.168-.125-.029-.081.035-.171.115-.204s.169-.024.255-.022c.212.007.424-.022.627-.085a.385.385 0 0 0 .165-.086.405.405 0 0 0 .095-.192c.061-.212.098-.431.109-.652.009-.163.003-.326.009-.489.004-.097-.005-.407.079-.474.065-.05.331.088.419.107.165.038.333.055.502.051zM27.213 28.884c.07.233.081.48.127.72s.126.485.304.652a.41.41 0 0 1 .088.098c.015.035.02.073.015.111s-.021.073-.045.102a.522.522 0 0 1-.179.137c-.46.251-.977.378-1.499.44a.637.637 0 0 1-.278-.01c-.089-.03-.167-.11-.166-.204a.103.103 0 0 1 .024-.07.169.169 0 0 1 .055-.032c.192-.079.387-.165.536-.311s.242-.366.185-.564a1.121 1.121 0 0 0-.137-.261 4.751 4.751 0 0 1-.204-.395l-.179-.376a.975.975 0 0 1-.114-.345c.225.01.45-.026.661-.106.098-.04.19-.095.272-.163.069-.058.132-.166.226-.09.075.06.122.23.166.316.057.113.105.23.143.351z"/><path fill="#fbbebe" style="fill:var(--color12, #fbbebe)" d="M24.586 19.551c.018.156.169.259.314.321l-.915.292c.059-.113.011-.252-.047-.366a2.07 2.07 0 0 0-.163-.261c-.009-.013-.019-.028-.013-.043a.043.043 0 0 1 .026-.02c.188-.084.382-.171.588-.201.059-.009.172-.032.216.028s-.014.178-.006.25z"/><path style="fill:var(--color3, #000)" opacity=".1" d="M24.586 19.551c.018.156.169.259.314.321l-.915.292c.059-.113.011-.252-.047-.366a2.07 2.07 0 0 0-.163-.261c-.009-.013-.019-.028-.013-.043a.043.043 0 0 1 .026-.02c.188-.084.382-.171.588-.201.059-.009.172-.032.216.028s-.014.178-.006.25z"/><path fill="#fbbebe" style="fill:var(--color12, #fbbebe)" d="M24.055 19.677a.718.718 0 1 0 0-1.436.718.718 0 0 0 0 1.436z"/><path fill="#2f2e41" style="fill:var(--color10, #2f2e41)" d="M23.433 24.865c.07.083.192.1.299.081.25-.041.455-.225.701-.292.301-.081.619.023.903.151s.566.285.876.307c-.281-.625-.12-1.378-.389-2.009-.066-.154-.157-.303-.172-.47-.018-.207.085-.407.101-.613.015-.184-.041-.367-.094-.542l-.196-.645c-.073-.241-.149-.485-.291-.692-.053-.076-.068-.231-.148-.277-.174-.101-.439.026-.628.033s-.361.141-.472.293c-.117.16-.183.351-.244.54-.097.281-.17.571-.217.865a2.96 2.96 0 0 0-.015.132c-.041.418.019.839.022 1.259v.003c.004.533-.081 1.063-.097 1.596-.002.097.001.204.061.278z"/><path style="fill:var(--color3, #000)" opacity=".1" d="M23.47 22.989a.905.905 0 0 0 .377-.226c.095-.085.178-.18.25-.285a2.03 2.03 0 0 0 .215-.451c.151-.424.247-.866.285-1.314.011-.122.014-.253-.059-.35a.298.298 0 0 0-.356-.086c-.096.047-.158.142-.216.233-.114.18-.23.362-.303.563-.033.089-.057.18-.088.269-.032.088-.07.174-.112.258a2.96 2.96 0 0 0-.015.132c-.038.418.02.837.023 1.258z"/><path fill="#2f2e41" style="fill:var(--color10, #2f2e41)" d="M24.536 20.284c.073.097.07.229.059.35-.038.448-.134.89-.285 1.314-.053.16-.125.313-.215.454-.072.105-.156.2-.25.285-.138.126-.307.239-.495.241a.955.955 0 0 1-.308-.067l-1.529-.52c-.015-.087.046-.189.075-.273l.081-.241c.023-.067.05-.139.111-.175s.157.013.207.054c.05.04.089.093.138.134.094.078.218.107.338.134l.343.077c.124.034.253.051.382.051.096-.292.278-.55.381-.84.032-.089.056-.18.089-.269.073-.2.189-.382.303-.563.057-.09.12-.185.216-.233a.295.295 0 0 1 .358.087zM24.283 19.122a.352.352 0 0 0-.043-.134.113.113 0 0 0-.122-.054c-.072.022-.096.133-.171.137-.05.002-.087-.049-.103-.097s-.024-.103-.062-.137a.226.226 0 0 0-.089-.041c-.174-.055-.353-.156-.411-.329a.188.188 0 0 1-.009-.11c.026-.11.163-.143.267-.182s.204-.107.305-.158.22-.088.332-.061c.057.018.113.039.167.062.169.059.375.031.506.153.057.06.099.134.122.213.091.253.149.554-.002.776-.093.137-.184.294-.363.311-.209.017-.291-.171-.324-.348z"/><path style="fill:var(--color3, #000)" opacity=".1" d="M23.965 18.887c-.016-.048-.024-.103-.062-.137a.226.226 0 0 0-.089-.041c-.174-.055-.354-.156-.412-.329a.206.206 0 0 1-.009-.11.123.123 0 0 1 .022-.048c-.066.029-.124.067-.141.135a.206.206 0 0 0 .009.11c.058.173.237.274.411.329a.233.233 0 0 1 .089.041c.038.034.046.088.062.137s.052.099.103.097c.051-.002.075-.048.107-.087-.044-.006-.077-.051-.091-.096zM24.727 19.383c-.209.019-.292-.171-.326-.347a.332.332 0 0 0-.041-.134.113.113 0 0 0-.122-.054.22.22 0 0 0-.09.081.124.124 0 0 1 .092.057.357.357 0 0 1 .043.134c.033.176.116.366.326.347a.333.333 0 0 0 .215-.112.334.334 0 0 1-.097.027z"/><path fill="#f06d39" style="fill:var(--color1, #f06d39)" d="M33.116 26.958c.726 0 1.315-.113 1.315-.253s-.589-.253-1.315-.253-1.315.113-1.315.253.589.253 1.315.253z"/><path fill="#3f3d56" style="fill:var(--color2, #3f3d56)" d="M33.094 26.798c.085 0 .153-.09.153-.2s-.069-.2-.153-.2c-.085 0-.153.09-.153.2s.069.2.153.2z"/><path fill="#3f3d56" style="fill:var(--color2, #3f3d56)" d="M33.094 26.553c.085 0 .153-.09.153-.2s-.069-.2-.153-.2c-.085 0-.153.09-.153.2s.069.2.153.2z"/><path fill="#3f3d56" style="fill:var(--color2, #3f3d56)" d="M33.094 26.308c.085 0 .153-.09.153-.2s-.069-.2-.153-.2c-.085 0-.153.09-.153.2s.069.2.153.2z"/><path fill="#3f3d56" style="fill:var(--color2, #3f3d56)" d="M33.094 26.063c.085 0 .153-.09.153-.2s-.069-.2-.153-.2c-.085 0-.153.09-.153.2s.069.2.153.2z"/><path fill="#3f3d56" style="fill:var(--color2, #3f3d56)" d="M33.094 25.818c.085 0 .153-.09.153-.2s-.069-.2-.153-.2c-.085 0-.153.09-.153.2s.069.2.153.2z"/><path fill="#3f3d56" style="fill:var(--color2, #3f3d56)" d="M33.094 25.573c.085 0 .153-.09.153-.2s-.069-.2-.153-.2c-.085 0-.153.09-.153.2s.069.2.153.2z"/><path fill="#3f3d56" style="fill:var(--color2, #3f3d56)" d="M33.094 25.328c.085 0 .153-.09.153-.2s-.069-.2-.153-.2c-.085 0-.153.09-.153.2s.069.2.153.2z"/><path fill="#f06d39" style="fill:var(--color1, #f06d39)" d="M33.667 23.452a.776.776 0 0 0 .057-.084l-.402-.066.435.003a.74.74 0 0 0 .014-.581l-.584.303.538-.396a.73.73 0 0 0-1.044-.238.732.732 0 0 0-.165 1.058.686.686 0 0 0-.084.134l.523.272-.557-.187a.741.741 0 0 0 .118.688.726.726 0 0 0-.082.774.734.734 0 1 0 1.236-.774.73.73 0 0 0 0-.906l-.001.001z"/><path style="fill:var(--color3, #000)" opacity=".1" d="M32.357 23.904c0 .165.056.325.158.454a.726.726 0 0 0-.082.774.74.74 0 0 0 .659.413.733.733 0 0 0 .577-1.187c.097-.125-1.311-.536-1.311-.454z"/><path fill="#f06d39" style="fill:var(--color1, #f06d39)" d="M6.045 32c1.046 0 1.893-.163 1.893-.364s-.848-.364-1.893-.364c-1.046 0-1.893.163-1.893.364S5 32 6.045 32z"/><path fill="#3f3d56" style="fill:var(--color2, #3f3d56)" d="M6.013 31.77c.122 0 .22-.129.22-.289s-.099-.289-.22-.289-.22.129-.22.289c0 .159.099.289.22.289z"/><path fill="#3f3d56" style="fill:var(--color2, #3f3d56)" d="M6.013 31.417c.122 0 .22-.129.22-.289s-.099-.289-.22-.289-.22.129-.22.289c0 .159.099.289.22.289z"/><path fill="#3f3d56" style="fill:var(--color2, #3f3d56)" d="M6.013 31.065c.122 0 .22-.129.22-.289s-.099-.289-.22-.289-.22.129-.22.289c0 .159.099.289.22.289z"/><path fill="#3f3d56" style="fill:var(--color2, #3f3d56)" d="M6.013 30.712c.122 0 .22-.129.22-.289s-.099-.289-.22-.289-.22.129-.22.289c0 .159.099.289.22.289z"/><path fill="#3f3d56" style="fill:var(--color2, #3f3d56)" d="M6.013 30.359c.122 0 .22-.129.22-.289s-.099-.289-.22-.289-.22.129-.22.289c0 .159.099.289.22.289z"/><path fill="#3f3d56" style="fill:var(--color2, #3f3d56)" d="M6.013 30.006c.122 0 .22-.129.22-.289s-.099-.289-.22-.289-.22.129-.22.289c0 .159.099.289.22.289z"/><path fill="#3f3d56" style="fill:var(--color2, #3f3d56)" d="M6.013 29.654c.122 0 .22-.129.22-.289s-.099-.289-.22-.289-.22.129-.22.289c0 .159.099.289.22.289z"/><path fill="#f06d39" style="fill:var(--color1, #f06d39)" d="M6.838 26.952c.03-.039.057-.08.081-.122l-.579-.095.626.005a1.05 1.05 0 0 0 .02-.836l-.84.437.774-.57a1.056 1.056 0 1 0-1.745 1.182.99.99 0 0 0-.122.192l.752.391-.802-.269a1.05 1.05 0 0 0 .174.994 1.052 1.052 0 0 0-.12 1.114 1.061 1.061 0 0 0 .95.595 1.057 1.057 0 0 0 .83-1.709 1.058 1.058 0 0 0 0-1.306z"/><path style="fill:var(--color3, #000)" opacity=".1" d="M4.952 27.606c0 .236.08.466.226.652a1.052 1.052 0 0 0-.12 1.114 1.061 1.061 0 0 0 .95.595 1.057 1.057 0 0 0 .83-1.709c.14-.18-1.886-.772-1.886-.652z"/></symbol><symbol id="icon-about" viewBox="0 0 39 32"><path fill="#f2f2f2" style="fill:var(--color13, #f2f2f2)" d="M31.521 5.829c-.205 2.258-.789 4.639-1.706 6.937-1.133 2.841-2.682 5.344-4.478 7.237l-.1-.087c1.787-1.884 3.329-4.376 4.457-7.205 1.02-2.557 1.627-5.218 1.755-7.694l.127.021c-.014.261-.032.525-.057.79zM32.337 18.944c-2.523 4.01-5.583 6.876-8.618 8.068l-.061-.112c3.014-1.184 6.056-4.035 8.567-8.027l.112.071z"/><path fill="#f2f2f2" style="fill:var(--color13, #f2f2f2)" d="M31.459 8.64c-.205 2.258-.789 4.639-1.706 6.937-1.133 2.841-2.682 5.344-4.478 7.237l-.1-.087c1.787-1.884 3.329-4.376 4.457-7.205 1.02-2.557 1.627-5.218 1.755-7.694l.127.021c-.014.261-.032.525-.056.79z"/><path fill="#e6e6e6" style="fill:var(--color14, #e6e6e6)" d="M3.14 14.438H1.485a.241.241 0 0 1-.184-.088.233.233 0 0 1-.045-.195 4.485 4.485 0 0 0-.029-2.108.237.237 0 0 1 .091-.246c.851-.612 1.521-.594 1.992.053a.24.24 0 0 1 .041.099c.126.756.133 1.526.021 2.284a.233.233 0 0 1-.232.201z"/><path fill="#fff" style="fill:var(--color5, #fff)" d="M2.626 12.782h-.569c-.031 0-.062-.012-.084-.035s-.035-.052-.035-.084c0-.031.012-.062.035-.084s.052-.035.084-.035h.569a.119.119 0 1 1 0 .238zM2.626 13.198h-.569c-.031 0-.062-.012-.084-.035s-.035-.052-.035-.084c0-.031.012-.062.035-.084s.052-.035.084-.035h.569a.119.119 0 1 1 0 .238zM2.626 13.614h-.569c-.031 0-.062-.012-.084-.035s-.035-.052-.035-.084c0-.031.012-.062.035-.084s.052-.035.084-.035h.569a.119.119 0 1 1 0 .238z"/><path fill="#e6e6e6" style="fill:var(--color14, #e6e6e6)" d="M33.22 21.823h-1.655a.241.241 0 0 1-.184-.088.226.226 0 0 1-.045-.195 4.485 4.485 0 0 0-.029-2.108.237.237 0 0 1 .091-.246c.851-.612 1.521-.594 1.992.053a.235.235 0 0 1 .041.099c.126.756.133 1.526.021 2.284a.233.233 0 0 1-.232.201z"/><path fill="#fff" style="fill:var(--color5, #fff)" d="M32.707 20.166h-.569a.119.119 0 1 1 0-.238h.569c.031 0 .062.012.084.035s.035.052.035.084c0 .031-.013.062-.035.084s-.053.035-.084.035zM32.707 20.582h-.569a.119.119 0 1 1 0-.238h.569c.031 0 .062.012.084.035s.035.052.035.084a.119.119 0 0 1-.119.119zM32.707 20.998h-.569a.119.119 0 1 1 0-.238h.569c.031 0 .062.012.084.035s.035.052.035.084a.119.119 0 0 1-.119.119z"/><path fill="#ccc" style="fill:var(--color15, #ccc)" d="M39.483 31.938c0 .008-.002.016-.005.024s-.008.014-.013.02-.013.01-.02.013a.069.069 0 0 1-.024.005H.061c-.016 0-.032-.007-.044-.018s-.018-.027-.018-.044.007-.032.018-.044a.06.06 0 0 1 .044-.018h39.36c.008 0 .016.002.024.005s.014.008.02.013.01.013.013.02a.069.069 0 0 1 .005.024z"/><path fill="#f2f2f2" style="fill:var(--color13, #f2f2f2)" d="m10.383 28.149-.103-1.435a4.644 4.644 0 0 0-2.181-.489c1.063.821.978 2.463 1.715 3.586.232.349.54.641.901.854s.765.343 1.182.38l.885.509a4.683 4.683 0 0 0-1.09-3.763 4.537 4.537 0 0 0-.852-.749c-.193.555-.457 1.106-.457 1.106zM29.101 28.357l.103-1.435a4.657 4.657 0 0 1 2.181-.489c-1.063.821-.978 2.463-1.715 3.586a2.786 2.786 0 0 1-2.083 1.234l-.885.509a4.683 4.683 0 0 1 1.09-3.763c.251-.284.538-.536.852-.749.193.555.457 1.106.457 1.106z"/><path fill="#f06d39" style="fill:var(--color1, #f06d39)" d="M19.273 12.166a.988.988 0 1 0 .001-1.977.988.988 0 0 0-.001 1.977z"/><path fill="#fff" style="fill:var(--color5, #fff)" d="M19.781 10.766c-.015-.014-.035-.022-.055-.022s-.04.008-.055.022c-.21.167-.398.36-.561.573l-.12-.232c-.046-.089-.181-.01-.135.079l.175.339c.007.011.017.021.029.028s.025.01.039.01a.078.078 0 0 0 .068-.038c.174-.244.381-.463.616-.648.015-.015.023-.034.023-.055s-.008-.04-.023-.055z"/><path fill="#ffb8b8" style="fill:var(--color16, #ffb8b8)" d="m14.849 13.98-1.491-2.34 1.727-.924.453 1.785 3.193 1.724a.693.693 0 0 1 .913.525.694.694 0 0 1-.666.815.693.693 0 0 1-.639-.4l-3.489-1.184z"/><path fill="#3f3d56" style="fill:var(--color2, #3f3d56)" d="M12.268 8.833c-.469.687 1.196 3.186 1.196 3.186.081-.175.857 1.787.986 1.671.369-.329.947-1.247 1.268-1.288.184-.023-.426-1.325-.426-1.325s-.279-.769-.657-1.75a1.767 1.767 0 0 0-1.282-1.12s-.618-.062-1.087.626z"/><path fill="#ffb8b8" style="fill:var(--color16, #ffb8b8)" d="M12.291 31.228h.708l.337-2.729h-1.045v2.73z"/><path fill="#2f2e41" style="fill:var(--color10, #2f2e41)" d="M12.111 30.997h.199l.778-.316.417.316a.889.889 0 0 1 .888.888v.029H12.11v-.917z"/><path fill="#ffb8b8" style="fill:var(--color16, #ffb8b8)" d="M15.581 31.228h.708l.337-2.729h-1.045v2.73z"/><path fill="#2f2e41" style="fill:var(--color10, #2f2e41)" d="M15.401 30.997h.199l.778-.316.417.316a.889.889 0 0 1 .888.888v.029H15.4v-.917zM15.888 16.306l-4.606.115c-.875.475-.888 1.502-.601 2.723 0 0-.097.725.097.919s.29.193.194.532c-.097.338.415.891.352.953s-.207.4-.207.4l.484 2.756s.339 4.786.435 4.883.194 0 .097.242-.194.145-.097.242c.086.092.166.189.242.29h1.17s.088-.483.088-.532.097-.338.097-.387-.085-.134-.085-.134a1.543 1.543 0 0 1-.06-.301c0-.097-.29-3.819-.29-3.819l.581-4.835 1.403 4.738s0 4.158.097 4.255.097.048.048.242-.242.145-.097.29.194-.097.145.145l-.048.242 1.451.021s.194-.407.097-.553-.091-.105.027-.343.166-.286.118-.334c-.048-.048-.048-.305-.048-.305l-.242-4.626s-.048-4.883-.048-5.028a.48.48 0 0 1 .04-.218v-.197l-.185-.698-.647-1.677z"/><path fill="#ffb8b8" style="fill:var(--color16, #ffb8b8)" d="M13.121 6.735a1.43 1.43 0 1 0 0-2.861 1.43 1.43 0 0 0 0 2.861z"/><path fill="#3f3d56" style="fill:var(--color2, #3f3d56)" d="M13.836 7.681c.308.183.493.52.599.862.196.634.314 1.29.351 1.952l.112 1.984 1.385 4.224c-1.2 1.015-5.712.231-5.712.231s-.139-.046 0-.185c.139-.138.273-.016.135-.154s-.043.016.003-.123c.046-.138 0-.046-.046-.092s.357-.461.357-.461l-.369-2.424-.462-4.89c.554-.692 1.668-1.1 1.668-1.1l.288-.518 1.439.115.252.58z"/><path fill="#2f2e41" style="fill:var(--color10, #2f2e41)" d="M14.3 4.545a.667.667 0 0 1 .236.331c.016-.216.017-.433.003-.649-.017-.152-.124-.186-.248-.226-.112-.036-.238-.076-.272-.224-.45-.437-1.233-.415-1.769-.263-.295.084-.465.192-.48.255l-.003.013-.012.006c-.227.114-.272.472-.269.753.006.529.188 1.13.291 1.179.005.003.007.002.009 0 .155-.124.344.009.427.082a1.487 1.487 0 0 1 1.333-1.262c.108-.01.216-.028.321-.054a.704.704 0 0 1 .164-.022.466.466 0 0 1 .268.08z"/><path fill="#ffb8b8" style="fill:var(--color16, #ffb8b8)" d="m23.185 17.446 2.753-2.794.725-2.234-1.167-.472c-.578.583-1.173 2.367-1.173 2.367l-1.879 2.52-.045.018a.55.55 0 0 0-.315.445.557.557 0 0 0 1.102.151z"/><path fill="#f06d39" style="fill:var(--color1, #f06d39)" d="m25.178 12.202 1.476.427.006-.001c.543-.105.972-1.006 1.236-1.744a1.02 1.02 0 0 0-.552-1.277 1.019 1.019 0 0 0-1.066.162l-.736.633-.363 1.799z"/><path fill="#ffb8b8" style="fill:var(--color16, #ffb8b8)" d="M23.915 31.145h-.794l-.378-3.06h1.172v3.06z"/><path fill="#2f2e41" style="fill:var(--color10, #2f2e41)" d="M24.117 30.886h-.223l-.872-.355-.468.354a.994.994 0 0 0-.996.996v.032h2.56v-1.028z"/><path fill="#ffb8b8" style="fill:var(--color16, #ffb8b8)" d="M27.437 31.145h-.794l-.378-3.06h1.172v3.06z"/><path fill="#2f2e41" style="fill:var(--color10, #2f2e41)" d="M27.64 30.886h-.223l-.872-.355-.468.354a.994.994 0 0 0-.996.996v.032h2.56v-1.028zM28.648 17.966s.093 1.111-.139 2.177-.232 4.065-.232 4.065l-.51 5.846-1.529-.139-.417-9.772-1.483 3.288.139.463-.185.116s.139.903.046.903-.324.139-.324.139l.185 4.77-1.576-.046-.556-6.715.603-3.844.046-.741.209.009.106-.31.195-.533 5.423.324z"/><path fill="#f06d39" style="fill:var(--color1, #f06d39)" d="m28.728 18.2.008-.012c.441-.617-.222-2.1-.322-2.315l.422-.137-.095-.806-.045-.359.322-.322.001-.008.185-1.621.27-1.077a2.356 2.356 0 0 0-.671-2.29l-.623-.587-.757-1.12h-1.221l-.419.79a1.782 1.782 0 0 0-1.377 1.816l.095 2.073-.372 2.581v.467l-.418.464.091.456-.318.136-.14.655c-.058.077-.442.588-.442.728 0 .021.015.041.049.064.262.177 1.707.538 2.347.282.681-.272 3.39.136 3.418.14l.014.002z"/><path fill="#ffb8b8" style="fill:var(--color16, #ffb8b8)" d="M26.653 7.184a1.617 1.617 0 1 0 0-3.234 1.617 1.617 0 0 0 0 3.234z"/><path fill="#2f2e41" style="fill:var(--color10, #2f2e41)" d="M26.498 7.21c.25-.003.5-.026.747-.072.244-.056.782-.472.929-.718.109-.183.174-.465.21-.67A1.97 1.97 0 0 0 28 4.2a.615.615 0 0 0-.256-.207l-.028-.009a.763.763 0 0 1-.387-.226.655.655 0 0 0-.065-.064.94.94 0 0 0-.399-.187c-.236-.057-.573.014-1.002.211-.216.099-.455.071-.639.036-.01-.002-.021-.001-.031.003s-.019.01-.025.018a.423.423 0 0 1-.285.122c-.065.005-.132.097-.212.217-.018.027-.039.059-.055.079l-.003-.037-.036.042a.514.514 0 0 0 .254.832.982.982 0 0 0 .203.027c.041.003.084.005.125.011a.775.775 0 0 1 .589.488.199.199 0 0 0 .132.121c.03.009.061.011.092.005s.06-.018.085-.036a.338.338 0 0 1 .304-.063.223.223 0 0 1 .101.109.285.285 0 0 0 .113.125c.168.081.19.46.138.778-.05.306-.158.53-.263.543-.081.01-.09.016-.095.031l-.005.013.009.012c.045.015.093.02.14.015z"/><path fill="#ffb8b8" style="fill:var(--color16, #ffb8b8)" d="m25.157 12.374-.777-.99c-.792.218-2.197 1.469-2.197 1.469l-2.885 1.251a.562.562 0 0 0-.521.194.555.555 0 1 0 .859.705l3.78-1.054 1.742-1.577z"/><path fill="#f06d39" style="fill:var(--color1, #f06d39)" d="m24.97 12.601 1.227-1.366.068-.968a1.014 1.014 0 0 0-.508-.951 1.024 1.024 0 0 0-1.355.32c-.433.653-.9 1.535-.66 2.033l.002.005 1.225.927z"/><path fill="#e6e6e6" style="fill:var(--color14, #e6e6e6)" d="m13.665 17.736-3.188-1.631c-.227-.116-.302-.424-.167-.686l2.079-4.056c.134-.262.428-.381.655-.265l3.188 1.631c.227.116.302.424.167.686l-2.079 4.056c-.134.262-.428.381-.655.265z"/><path fill="#fff" style="fill:var(--color5, #fff)" d="m13.121 16.986-2.166-1.108c-.212-.109-.283-.397-.157-.643l1.727-3.369c.126-.246.401-.357.613-.248l2.616 1.339c.212.109.283.397.157.643l-.938 1.83c-.561 1.094-.906 2.041-1.852 1.557z"/><path fill="#f06d39" style="fill:var(--color1, #f06d39)" d="m14.192 15.146-1.918-.982a.12.12 0 0 1 .109-.21l1.918.982a.12.12 0 0 1-.109.21zM12.497 14.806l-.438-.224a.12.12 0 0 1 .109-.21l.438.224a.12.12 0 0 1-.109.21zM13.059 15.62l-1.213-.621a.12.12 0 0 1 .109-.21l1.213.621a.12.12 0 0 1 .037.152.12.12 0 0 1-.146.059zM14.951 13.665l-1.918-.982a.12.12 0 0 1 .109-.21l1.918.982a.12.12 0 0 1-.109.21zM13.256 13.325l-.438-.224a.12.12 0 0 1-.037-.152.12.12 0 0 1 .146-.059l.438.224a.12.12 0 0 1 .037.152.12.12 0 0 1-.146.059zM13.818 14.139l-1.213-.621a.12.12 0 0 1 .109-.21l1.213.621a.12.12 0 0 1-.109.21z"/><path fill="#ffb8b8" style="fill:var(--color16, #ffb8b8)" d="m11.024 14.206-.72-2.679 1.925-.364-.103 1.839 2.529 2.602a.694.694 0 0 1 .649.386.684.684 0 0 1-.093.748.686.686 0 0 1-1.053.003.698.698 0 0 1-.16-.36l-2.973-2.175z"/><path fill="#3f3d56" style="fill:var(--color2, #3f3d56)" d="M10.107 8.523c-.653.515.185 3.398.185 3.398.13-.142.281 1.962.439 1.89.451-.204 1.278-.906 1.596-.849.182.033-.009-1.392-.009-1.392s-.035-.817-.101-1.867a1.76 1.76 0 0 0-.886-1.452s-.571-.244-1.224.271z"/><path fill="#e6e6e6" style="fill:var(--color14, #e6e6e6)" d="m20.976 20.152-1.74-.821a.27.27 0 0 1-.15-.184.266.266 0 0 1 .05-.227 5.225 5.225 0 0 0 1.01-2.197.269.269 0 0 1 .265-.218c.887.003 1.55.327 1.971.962a.275.275 0 0 1 .036.228 8.515 8.515 0 0 1-1.099 2.361.274.274 0 0 1-.344.097z"/><path fill="#fff" style="fill:var(--color5, #fff)" d="m21.488 19.001-1.33-.628a.137.137 0 0 1 .012-.254.137.137 0 0 1 .105.005l1.33.628c.016.008.031.019.043.032a.136.136 0 0 1 .023.151c-.008.016-.019.031-.032.043a.136.136 0 0 1-.151.023zM21.695 18.564l-1.33-.628a.137.137 0 0 1 .012-.254.137.137 0 0 1 .105.005l1.33.628a.137.137 0 0 1-.012.254.137.137 0 0 1-.105-.005z"/><path fill="#f2f2f2" style="fill:var(--color13, #f2f2f2)" d="m19.917 4.837-.124.014c-.552-2.168-1.622-3.67-3.095-4.343-1.872-.856-4.187-.281-6.518 1.619-2.343 1.91-4.417 4.927-5.84 8.495l-.12-.055c1.429-3.584 3.514-6.615 5.87-8.535C12.458.102 14.82-.477 16.741.401c1.515.693 2.613 2.227 3.176 4.437z"/><path fill="#f2f2f2" style="fill:var(--color13, #f2f2f2)" d="M6.257 7.66a35.55 35.55 0 0 0-.915 2.099C3.71 13.851 2.883 18.03 2.95 21.844l-.128-.014c-.068-3.829.762-8.022 2.399-12.126.284-.713.593-1.421.918-2.105l.118.061z"/><path fill="#f2f2f2" style="fill:var(--color13, #f2f2f2)" d="M6.196 10.472a35.55 35.55 0 0 0-.915 2.099c-1.632 4.092-2.459 8.271-2.392 12.085l-.128-.014c-.068-3.829.762-8.022 2.399-12.126.284-.713.593-1.421.918-2.105l.117.061z"/><path fill="#ccc" style="fill:var(--color15, #ccc)" d="M2.768 11.495c.141-.212.058-.515-.186-.677s-.556-.122-.697.09c-.141.212-.058.515.186.677s.556.122.697-.09zM32.793 19.143c.141-.212.058-.515-.186-.677s-.556-.122-.697.09-.058.515.186.677c.244.162.556.122.697-.09z"/></symbol><symbol id="icon-check" viewBox="0 0 42 32"><path stroke-width=".64" d="m6.263 15.205-.22-.21-3.307 3.132 11.651 11.114L38.864 5.89l-3.285-3.134-21.192 20.197-8.124-7.75z"/></symbol><symbol id="icon-call" viewBox="0 0 31 32"><path fill="#f4f4f4" style="fill:var(--color17, #f4f4f4)" d="M24.883 17.28c-.282 0-.576-.09-.858-.154a12.095 12.095 0 0 1-1.677-.499 2.558 2.558 0 0 0-3.175 1.28l-.282.576a15.616 15.616 0 0 1-3.405-2.56 15.56 15.56 0 0 1-2.56-3.405l.538-.358a2.56 2.56 0 0 0 1.279-3.175 13.184 13.184 0 0 1-.499-1.677 9.747 9.747 0 0 1-.154-.87 3.84 3.84 0 0 0-3.84-3.187H6.41a3.823 3.823 0 0 0-2.919 1.303 3.846 3.846 0 0 0-.921 3.061 24.322 24.322 0 0 0 21.145 21.069h.486a3.842 3.842 0 0 0 2.56-.973 3.838 3.838 0 0 0 1.28-2.88v-3.84a3.84 3.84 0 0 0-3.161-3.712zm.64 7.68a1.278 1.278 0 0 1-.435.96 1.346 1.346 0 0 1-1.05.32A21.756 21.756 0 0 1 5.209 7.322a1.404 1.404 0 0 1 .32-1.05 1.279 1.279 0 0 1 .96-.435h3.84a1.281 1.281 0 0 1 1.28 1.011c.051.35.115.695.192 1.037.148.675.345 1.338.589 1.984l-1.792.832a1.281 1.281 0 0 0-.628 1.703 18.545 18.545 0 0 0 8.96 8.96c.312.128.661.128.973 0a1.282 1.282 0 0 0 .729-.666l.794-1.792c.662.237 1.337.433 2.022.589.341.077.687.141 1.037.192a1.278 1.278 0 0 1 1.011 1.28l.026 3.994z"/></symbol><symbol id="icon-cooperation" viewBox="0 0 63 32"><path fill="#f2f2f2" style="fill:var(--color13, #f2f2f2)" d="m59.7 17.654-.196 1.558-.486 3.871h-9.757c.076-.868.18-2.116.292-3.464.011-.135.023-.27.033-.406.279-3.388.584-7.223.584-7.223l7.501 1.396c1.354.252 2.285 2.212 2.028 4.269z"/><path fill="#ffb6b6" style="fill:var(--color18, #ffb6b6)" d="m52.319 5.719 1.2 2.1-2.306 1.634-.984-2.581 2.09-1.153z"/><path fill="#ffb6b6" style="fill:var(--color18, #ffb6b6)" d="M50.792 7.706a2.973 2.973 0 1 0 0-5.946 2.973 2.973 0 0 0 0 5.946z"/><path fill="#2f2e41" style="fill:var(--color10, #2f2e41)" d="M50.578 5.398c-.236-.359-.143-.547-.341-.679 0 0-.08-.053-.649-.083-.127-.917-.286-1.028-.286-1.028-.183-.128-.455-.087-.625-.008-.358.166-.316.524-.557.592-.333.095-.939-.439-.998-1.05-.049-.498.272-.982.4-.957.126.025.429-.361.592-.355.111.004.567-.194.69-.178.134.017.575.247.593.195.128-.366.09-.467.199-.572.192-.185.506-.056.999.013 1.014.143 1.191-.192 1.711.035.263.115.482.423.911 1.036.6.857.899 1.286.901 1.786.002.51-.245.478-.353 1.232-.121.84.136 1.224-.144 1.497-.217.211-.657.261-.888.076-.396-.317.122-1.082-.316-1.641-.269-.343-.81-.496-1.058-.326-.28.192-.126.755-.323.808-.169.046-.416-.331-.457-.393z"/><path fill="#f06d39" style="fill:var(--color1, #f06d39)" d="M57.503 17.105c-.083 1.418-.412 1.865-.528 3.539-.025.368-.04.794-.04 1.303l.001.378c0 .261-.005.507-.035.757-.023.2-.063.401-.128.613h-6.402l-.001-.004a4.577 4.577 0 0 1-.094-.609 9.624 9.624 0 0 1-.016-.16 4.086 4.086 0 0 0-.085-.597 1.527 1.527 0 0 0-.405-.746 2.033 2.033 0 0 0-.281-.239l-.053-.037c-.255-.175-.497-.301-.706-.659a.065.065 0 0 1-.009-.016c-.036-.063-.13-.227-.197-.446a1.454 1.454 0 0 1-.037-.806c.185-.693.871-.763 1.432-1.463.061-.076.12-.159.177-.252.254-.412.322-.775.403-1.207.013-.07.025-.139.034-.206.007-.051.014-.1.019-.149a3.893 3.893 0 0 0-.03-1.083c-.172-1.039-.677-1.681-.32-2.613a2.36 2.36 0 0 1 .432-.7c.34-.399.69-.657.629-1.172-.061-.519-.455-.59-.499-1.044-.022-.229.053-.471.193-.708v-.001c.45-.763 1.573-1.466 2.286-1.444a.719.719 0 0 1 .346.09c.352.208.205.661.745 1.297.401.472.855.661 1.028.75.683.356 1.237 1.406 1.614 2.749l.009.031c.233.841.397 1.796.479 2.765.035.41.055.822.059 1.23.004.326-.004.608-.019.86z"/><path fill="#ffb6b6" style="fill:var(--color18, #ffb6b6)" d="m52.709 21.962-.131.363-.082.228-.19.53-.221.613h-1.418l.238-.613.11-.285.183-.472.307-.793 1.203.43z"/><path fill="#f06d39" style="fill:var(--color1, #f06d39)" d="m56.997 12.096-.014.155a46.148 46.148 0 0 1-.383 2.765 49.358 49.358 0 0 1-.357 1.925c-.29 1.407-.65 2.793-1.057 3.704a4.694 4.694 0 0 1-.408.74c-.208.319-.44.622-.682.904-.009.012-.02.024-.031.036a11.511 11.511 0 0 1-.715.758 14.38 14.38 0 0 1-.672.613h-2.302l-.009-.004-.332-.147s.094-.111.252-.321l.105-.141a16.287 16.287 0 0 0 .522-.758 18.764 18.764 0 0 0 .968-1.68l.003-.006c.06-.117.119-.237.178-.36a7.672 7.672 0 0 0 .685-2.187c.058-.396.138-.951.116-1.56a4.495 4.495 0 0 0-.212-1.25v-.001a3.528 3.528 0 0 0-.334-.732c-.407-.676-.738-.704-1.001-1.441-.078-.218-.254-.711-.2-1.232v-.001c.007-.064.017-.129.032-.194v-.001l.014-.055c.041-.159.109-.317.212-.467.201-.291.476-.464.721-.567l.001-.001c.284-.118.529-.143.577-.148 1.053-.094 1.869.791 2.316 1.275.172.187.33.343.474.471 1.122 1.002 1.43.362 1.51.031.012-.051.019-.095.022-.124zM57.001 12.058a.32.32 0 0 1-.004.036l.003-.032.001-.004z"/><path fill="#e6e6e6" style="fill:var(--color14, #e6e6e6)" d="M51.277 27.266H12.643c-.359 0-.652.292-.652.651s.293.651.652.651h38.634a.652.652 0 0 0 0-1.302zM42.703 30.631H21.215a.652.652 0 0 0 0 1.303h21.488a.653.653 0 0 0 0-1.303z"/><path fill="#ffb6b6" style="fill:var(--color18, #ffb6b6)" d="m16.942 5.858 2.435-1.025 1.044 2.141-2.559 1.044-.921-2.161z"/><path style="fill:var(--color3, #000)" opacity=".1" d="m16.942 5.858 2.435-1.025 1.044 2.141-2.559 1.044-.921-2.161z"/><path fill="#f06d39" style="fill:var(--color1, #f06d39)" d="M17.288 5.042 19.69 7.81s-1.671 5.274-3.342 5.744-4.752 2.768-4.752 2.768l-3.864-2.506 1.88-2.768s4.543-6.214 5.744-6.214 1.932.209 1.932.209z"/><path fill="#2f2e41" style="fill:var(--color10, #2f2e41)" d="M14.043 23.083H8.452l-2.129-2.846s-1.253-2.298-.992-4.386 2.976-2.559 2.976-2.559h.112l3.324 2.921-.198 2.718 2.499 4.151z"/><path fill="#2f2e41" style="fill:var(--color10, #2f2e41)" d="M9.596 23.083H8.097v-2.219l1.499 2.219z"/><path fill="#f2f2f2" style="fill:var(--color13, #f2f2f2)" d="m41.92 19.714-.186.967-.463 2.402h-9.294a276 276 0 0 0 .278-2.15l.032-.252c.266-2.103.557-4.482.557-4.482l7.145.866a2.242 2.242 0 0 1 1.932 2.649z"/><path fill="#2f2e41" style="fill:var(--color10, #2f2e41)" d="M55.074 23.083h-5.041c.077-.09.12-.143.12-.143l4.625-.763s.142.367.296.906z"/><path fill="#a0616a" style="fill:var(--color19, #a0616a)" d="m33.69 6.902 2.192 3.1-3.824.114-.41-2.914 2.042-.301z"/><path style="fill:var(--color3, #000)" opacity=".1" d="m33.69 6.902 2.192 3.1-3.824.114-.41-2.914 2.042-.301z"/><path fill="#a0616a" style="fill:var(--color19, #a0616a)" d="M22.879 13.326c-.281-.811-.928-1.324-1.444-1.145s-.707.982-.425 1.794c.108.326.292.621.538.861l1.235 3.423 1.594-.614-1.387-3.309c.044-.34.006-.687-.11-1.009z"/><path fill="#ccc" style="fill:var(--color15, #ccc)" d="m37.719 11.746-.003 3.16-.899 3.568-.885 4.44a9.773 9.773 0 0 1-.264.17H28.03c-.434-.261-.677-.463-.677-.463s.12-.113.257-.294c.232-.306.512-.807.34-1.286a.868.868 0 0 1-.034-.359c.07-.899 1.013-2.42 1.013-2.42l-.195-2.257-.086-.989.604-4.822L31.22 9.05l.34-.033 3.354-.181 1.386.08.063.017 1.355 2.814z"/><path fill="#ffb6b6" style="fill:var(--color18, #ffb6b6)" d="M37.868 23.083h-1.671l-.074-.757-.002-.015 1.704-.116.021.453.017.348.004.088z"/><path fill="#ccc" style="fill:var(--color15, #ccc)" d="m38.279 12.51.702 4.118-.573 4.053-.247 1.745-.049.343.002.037.012.278h-1.984l-.073-.757-.006-.068-.149-1.551-.003-.026-.317-3.289.621-2.377.046-.175v-.001l.27-4.07-.209-1.849-.002-.017.012.008a4.13 4.13 0 0 1 1.947 3.599zM29.964 10.982l-.763-.789s-1.633.736-1.715 1.145-2.965 6.409-2.965 6.409l-1.255-3.351-1.633 1.091s1.311 5.203 2.536 5.447 5.333-6.158 5.333-6.158l.462-3.793z"/><path fill="#e6e6e6" style="fill:var(--color14, #e6e6e6)" d="M60.947 20.645H1.525a1.527 1.527 0 0 0 0 3.051h59.422c.841 0 1.526-.684 1.526-1.525s-.685-1.526-1.526-1.526z"/><path fill="#3f3d56" style="fill:var(--color2, #3f3d56)" d="m37.371 15.996-.116 5.391a.959.959 0 0 1-.959.939h-9.917a.959.959 0 0 1-.958-.907l-.295-5.391a.96.96 0 0 1 .958-1.012h10.328c.538 0 .971.442.959.98z"/><path fill="#ffb6b6" style="fill:var(--color18, #ffb6b6)" d="M21.361 7.159a2.373 2.373 0 1 0 0-4.746 2.373 2.373 0 0 0 0 4.746zM17.392 10.995l.261 2.82 1.775 7.154-1.534.538-2.591-7.796-.358-3.133 2.447.418z"/><path fill="#3f3d56" style="fill:var(--color2, #3f3d56)" d="m16.686 15.996-.116 5.391a.959.959 0 0 1-.959.939H5.694a.959.959 0 0 1-.958-.907l-.295-5.391a.96.96 0 0 1 .958-1.012h10.328c.538 0 .971.442.959.98z"/><path fill="#ffb6b6" style="fill:var(--color18, #ffb6b6)" d="M19.712 22.362c1.035 0 1.874-.371 1.874-.829s-.839-.829-1.874-.829c-1.035 0-1.874.371-1.874.829s.839.829 1.874.829z"/><path fill="#f06d39" style="fill:var(--color1, #f06d39)" d="m13.711 11.426 1.07-5.705s2.976-.418 3.081.574-.075 5.841-.075 5.841l-4.077-.71z"/><path fill="#2f2e41" style="fill:var(--color10, #2f2e41)" d="M20.403 5.159s1.468-.524 2.087-.806 1.849 1.684 1.877.646-.398-1.474-.398-1.474-.106-2.271-2.394-1.987c0 0 .503-1.136-1.149-1.312s-4.223 3.814-3.992 4.41.506 1.089-.147 1.727c-.653.638-1.876 4.236-.946 5.204s.992 1.388.354 1.991c-.638.602-2.144 1.912-.515 2.139s-.149.057 1.066-1.011c1.215-1.068 2.987-1.025 2.325-2.739s.488-4.171.344-4.543c-.144-.373.322-2.739.322-2.739s1.085-.159 1.166.494z"/><path fill="#a0616a" style="fill:var(--color19, #a0616a)" d="M32.518 8.024a2.582 2.582 0 1 0 .001-5.165 2.582 2.582 0 0 0-.001 5.165z"/><path fill="#2f2e41" style="fill:var(--color10, #2f2e41)" d="M32.724 1.969c-.075.044-.175-.022-.199-.106s.004-.171.032-.253l.139-.413c.099-.293.204-.596.418-.819.323-.336.837-.422 1.299-.36.594.08 1.179.401 1.455.933s.158 1.273-.34 1.605c.711.815.959 1.723.919 2.803s-1.217 2.075-1.984 2.836c-.172-.104-.327-.591-.233-.768s-.041-.382.076-.545c.117-.163.215.097.096-.066-.075-.102.216-.338.105-.399-.536-.296-.714-.964-1.05-1.475a2.515 2.515 0 0 0-1.835-1.104c-.405-.038-.832.031-1.164.266s-.547.655-.47 1.054c-.199-.202-.298-.499-.261-.78s.211-.542.456-.685c-.149-.493-.021-1.06.325-1.442s1.75-.317 2.255-.216l-.039-.067z"/><path fill="#2f2e41" style="fill:var(--color10, #2f2e41)" d="M32.803 3.854c.669.072 1.152.652 1.56 1.187.235.309.481.649.476 1.037-.006.392-.268.729-.394 1.1a1.658 1.658 0 0 0 .482 1.746c-.482.091-1.003-.27-1.086-.753-.097-.563.33-1.106.279-1.674-.045-.501-.439-.887-.775-1.261s-.651-.872-.496-1.35l-.047-.032z"/><path fill="#ffb6b6" style="fill:var(--color18, #ffb6b6)" d="M42.807 20.971c-.663.377-1.006 1.025-.766 1.446s.972.458 1.635.081c.267-.147.495-.356.664-.609l2.788-1.633-.794-1.292-2.664 1.747a1.92 1.92 0 0 0-.863.26z"/><path fill="#f06d39" style="fill:var(--color1, #f06d39)" d="M52.248 8.998c-.083-.033-.814-.31-1.482.056-.767.42-.885 1.378-.927 1.715-.096.777.187.951.246 1.737.112 1.471.406-.207-.064.464-.163.232-1.825 3.834-2.741 4.54-1.783 1.372-2.915 2.338-2.915 2.338l1.292 1.404s2.042-.544 3.847-1.716c1.851-1.202 2.777-1.803 3.493-2.979.062-.101 1.537-2.607.745-5.378-.181-.632-.512-1.79-1.495-2.18z"/><path fill="#3f3d56" style="fill:var(--color2, #3f3d56)" d="m58.92 15.996-.116 5.391a.959.959 0 0 1-.959.939h-9.917a.959.959 0 0 1-.958-.907l-.295-5.391a.96.96 0 0 1 .958-1.012h10.328c.538 0 .971.442.959.98z"/></symbol><symbol id="icon-down-one" viewBox="0 0 31 32"><path d="M6.793 12.433a.96.96 0 0 1 .887-.593h15.36a.96.96 0 0 1 .679 1.639l-7.68 7.68a.96.96 0 0 1-1.358 0l-7.68-7.68a.958.958 0 0 1-.208-1.046zm3.205 1.327 5.362 5.362 5.362-5.362H9.997z"/></symbol><symbol id="icon-facebook" viewBox="0 0 32 32"><path fill="#f06d39" style="fill:var(--color1, #f06d39)" d="M27.867 2.667H4.134a1.467 1.467 0 0 0-1.467 1.467v23.733a1.459 1.459 0 0 0 .43 1.037 1.473 1.473 0 0 0 1.037.43h12.773V19.001H13.44v-4h3.467v-3a4.86 4.86 0 0 1 3.097-5.027 4.85 4.85 0 0 1 2.076-.307 27.1 27.1 0 0 1 3.107.16v3.6h-2.12c-1.68 0-2 .8-2 1.96v2.573h4l-.52 4h-3.48v10.373h6.8a1.459 1.459 0 0 0 1.037-.43 1.473 1.473 0 0 0 .43-1.037V4.133a1.459 1.459 0 0 0-.43-1.037 1.473 1.473 0 0 0-1.037-.43z"/></symbol><symbol id="icon-fi_menu" viewBox="0 0 29 32"><path fill="none" stroke="#f06d39" style="stroke:var(--color1, #f06d39)" stroke-linejoin="round" stroke-linecap="round" stroke-width="2.667" d="M3.531 23.823h21.183M3.531 15.883h21.183M3.531 7.941h21.183"/></symbol><symbol id="icon-instagram" viewBox="0 0 32 32"><path fill="#f06d39" style="fill:var(--color1, #f06d39)" d="M16 9.333a6.665 6.665 0 0 0-6.538 7.968 6.666 6.666 0 1 0 6.539-7.967zM16 20a4.004 4.004 0 0 1-3.695-2.469A4 4 0 1 1 16 20zm6.667-12a1.332 1.332 0 0 0-1.308 1.593 1.332 1.332 0 0 0 2.416.481 1.33 1.33 0 0 0-.165-1.684 1.334 1.334 0 0 0-.943-.391zm6.586 2.987a9.995 9.995 0 0 0-.64-3.333 7.406 7.406 0 0 0-4.267-4.267 10.025 10.025 0 0 0-3.333-.64c-1.293-.08-1.72-.08-5.013-.08s-3.72 0-5.013.08a10.02 10.02 0 0 0-3.333.64 7.406 7.406 0 0 0-4.267 4.267 10.025 10.025 0 0 0-.64 3.333c-.08 1.307-.08 1.733-.08 5.013s0 3.707.08 5.013a10.02 10.02 0 0 0 .64 3.333 7.406 7.406 0 0 0 4.267 4.267c1.067.401 2.194.618 3.333.64 1.333 0 1.72.08 5.013.08s3.72 0 5.013-.08a9.995 9.995 0 0 0 3.333-.64 7.406 7.406 0 0 0 4.267-4.267c.401-1.067.618-2.194.64-3.333 0-1.333.08-1.733.08-5.013s0-3.707-.08-5.013zm-2.666 9.906a7.985 7.985 0 0 1-.467 2.48 4.54 4.54 0 0 1-1.093 1.667 4.348 4.348 0 0 1-1.667 1.08 7.67 7.67 0 0 1-2.493.48c-1.253 0-1.64.067-4.88.067H11.12a8.002 8.002 0 0 1-2.493-.467 4.54 4.54 0 0 1-1.667-1.093 4.348 4.348 0 0 1-1.08-1.667 7.668 7.668 0 0 1-.48-2.48v-9.786a7.805 7.805 0 0 1 .48-2.493 4.39 4.39 0 0 1 1.08-1.653 4.348 4.348 0 0 1 1.667-1.08 7.67 7.67 0 0 1 2.493-.48c1.253-.133 1.64-.133 4.88-.133h4.88a7.84 7.84 0 0 1 2.507.48 4.39 4.39 0 0 1 1.653 1.08 4.348 4.348 0 0 1 1.08 1.667c.326.811.511 1.673.547 2.547 0 1.333.067 1.667.067 4.893s-.067 3.613-.067 4.893h-.08z"/></symbol><symbol id="icon-message" viewBox="0 0 31 32"><path fill="#f4f4f4" style="fill:var(--color17, #f4f4f4)" d="M24.32 5.76H6.4A3.84 3.84 0 0 0 2.56 9.6v12.8a3.84 3.84 0 0 0 3.84 3.84h17.92a3.84 3.84 0 0 0 3.84-3.84V9.6a3.84 3.84 0 0 0-3.84-3.84zm-.525 2.56-7.526 7.526a1.288 1.288 0 0 1-.908.378 1.278 1.278 0 0 1-.908-.378L6.927 8.32h16.87zM25.6 22.4a1.28 1.28 0 0 1-1.28 1.28H6.4a1.28 1.28 0 0 1-1.28-1.28V10.125l7.526 7.526a3.84 3.84 0 0 0 5.428 0l7.526-7.526V22.4z"/></symbol><symbol id="icon-submit-success" viewBox="0 0 37 32"><path fill="#e6e6e6" style="fill:var(--color14, #e6e6e6)" d="M2.797 29.328a1.322 1.322 0 0 0 1.279-.225c.448-.376.588-.995.703-1.569l.338-1.697-.708.487c-.509.35-1.029.712-1.382 1.22s-.506 1.201-.223 1.75z"/><path fill="#f2f2f2" style="fill:var(--color13, #f2f2f2)" d="M2.906 31.5c-.089-.649-.181-1.306-.118-1.962.055-.582.233-1.151.595-1.618.192-.247.426-.459.691-.626.069-.044.133.066.064.109-.458.29-.813.717-1.012 1.221-.22.56-.256 1.171-.218 1.767.023.36.072.718.121 1.075.004.016.001.033-.007.048s-.022.025-.037.03a.063.063 0 0 1-.078-.044z"/><path fill="#e6e6e6" style="fill:var(--color14, #e6e6e6)" d="M3.547 30.458a.982.982 0 0 0 .849.439c.43-.02.789-.321 1.111-.606l.955-.843-.632-.03c-.454-.022-.92-.042-1.353.098s-.832.477-.911.925z"/><path fill="#f2f2f2" style="fill:var(--color13, #f2f2f2)" d="M2.654 31.873c.429-.759.926-1.602 1.815-1.872a2.03 2.03 0 0 1 .763-.079c.081.007.061.132-.02.125a1.881 1.881 0 0 0-1.218.322c-.344.234-.611.559-.837.904-.139.211-.263.431-.387.651-.04.07-.156.02-.116-.052z"/><path fill="#fff" style="fill:var(--color5, #fff)" d="M36.968 22.506H13.325a.277.277 0 0 1-.275-.275V.275A.277.277 0 0 1 13.325 0h23.643a.277.277 0 0 1 .275.275v21.956c0 .073-.029.143-.081.194s-.121.08-.194.081z"/><path fill="#cacaca" style="fill:var(--color20, #cacaca)" d="M36.968 22.506H13.325a.277.277 0 0 1-.275-.275V.275A.277.277 0 0 1 13.325 0h23.643a.277.277 0 0 1 .275.275v21.956c0 .073-.029.143-.081.194s-.121.08-.194.081zM13.325.11a.163.163 0 0 0-.164.164V22.23a.163.163 0 0 0 .164.164h23.643c.044 0 .086-.017.116-.048s.048-.073.048-.116V.274c0-.044-.017-.086-.048-.116S37.011.11 36.968.11H13.325z"/><path fill="#e4e4e4" style="fill:var(--color21, #e4e4e4)" d="M24.497 5.705a.188.188 0 0 0-.187.187.188.188 0 0 0 .187.187h10.237a.188.188 0 0 0 .187-.187.188.188 0 0 0-.187-.187H24.497zM24.497 6.825a.185.185 0 0 0-.186.187.186.186 0 0 0 .186.187h5.226a.185.185 0 0 0 .186-.187.186.186 0 0 0-.186-.187h-5.226zM15.549 12.845a.185.185 0 0 0-.186.187.186.186 0 0 0 .186.187h19.194a.185.185 0 0 0 .186-.187.186.186 0 0 0-.186-.187H15.549zM15.549 13.964a.185.185 0 0 0-.186.187.186.186 0 0 0 .186.187h14.183a.185.185 0 0 0 .186-.187.186.186 0 0 0-.186-.187H15.549zM15.549 15.059a.185.185 0 0 0-.186.187.186.186 0 0 0 .186.187h19.194a.185.185 0 0 0 .186-.187.186.186 0 0 0-.186-.187H15.549zM15.549 16.178a.185.185 0 0 0-.186.187c0 .049.02.097.054.132s.082.055.132.055h14.183a.185.185 0 0 0 .186-.187c0-.049-.02-.097-.054-.132s-.082-.055-.132-.055H15.549zM15.549 17.301a.185.185 0 0 0-.186.187.186.186 0 0 0 .186.187h19.194a.185.185 0 0 0 .186-.187.186.186 0 0 0-.186-.187H15.549zM15.549 18.421a.185.185 0 0 0-.186.187c0 .049.02.097.054.132s.082.055.132.055h14.183a.185.185 0 0 0 .186-.187c0-.049-.02-.097-.054-.132s-.082-.055-.132-.055H15.549z"/><path fill="#f06d39" style="fill:var(--color1, #f06d39)" d="M18.589 9.132a2.677 2.677 0 0 1-2.476-1.655 2.676 2.676 0 0 1 .582-2.921 2.684 2.684 0 0 1 4.576 1.895 2.68 2.68 0 0 1-2.68 2.68z"/><path fill="#a0616a" style="fill:var(--color19, #a0616a)" d="M10.453 19.267a.67.67 0 0 0-.818-.621l-.886-1.249-.89.353 1.276 1.746a.675.675 0 0 0 1.319-.229z"/><path fill="#3f3d56" style="fill:var(--color2, #3f3d56)" d="m8.726 19.174-2.681-3.478 1.004-3.157c.074-.794.57-1.015.591-1.024l.032-.014.874 2.331-.642 1.711 1.575 2.649-.755.981z"/><path fill="#a0616a" style="fill:var(--color19, #a0616a)" d="M18.036 8.453a.665.665 0 0 0-.479.302.68.68 0 0 0-.077.561l-1.176.98.421.86 1.642-1.407a.67.67 0 0 0 .41-.794c-.041-.16-.139-.299-.275-.392s-.302-.132-.466-.11z"/><path fill="#3f3d56" style="fill:var(--color2, #3f3d56)" d="m18.078 10.182-3.26 2.942-3.225-.757c-.797-.012-1.056-.49-1.067-.51l-.016-.031 2.256-1.052 1.756.508 2.52-1.775 1.037.677z"/><path fill="#a0616a" style="fill:var(--color19, #a0616a)" d="M12.431 31.094h.876l.417-3.379h-1.293v3.379z"/><path fill="#2f2e41" style="fill:var(--color10, #2f2e41)" d="M14.996 31.907h-2.753v-1.064h1.981a.771.771 0 0 1 .772.772v.291z"/><path fill="#a0616a" style="fill:var(--color19, #a0616a)" d="M8.93 31.094h.876l.417-3.379H8.93v3.379z"/><path fill="#2f2e41" style="fill:var(--color10, #2f2e41)" d="M11.495 31.907H8.742v-1.064h1.981a.774.774 0 0 1 .773.773v.291zM8.618 18.762l.071 5.001.072 6.573 1.572-.143.786-9.074 1 9.074h1.623l.163-9.145-.572-2.001-4.716-.286z"/><path fill="#3f3d56" style="fill:var(--color2, #3f3d56)" d="M11.695 19.434c-1.71 0-3.284-.774-3.306-.785l-.018-.009-.144-3.444c-.042-.122-.861-2.523-1-3.287-.141-.773 1.897-1.452 2.145-1.532l.056-.622 2.284-.246.289.796.819.307a.407.407 0 0 1 .251.476l-.455 1.852 1.112 6.127-.239.01c-.574.259-1.193.355-1.796.355z"/><path fill="#a0616a" style="fill:var(--color19, #a0616a)" d="M11.449 8.914a1.644 1.644 0 1 0-1.577-2.886 1.644 1.644 0 0 0 1.577 2.886z"/><path fill="#2f2e41" style="fill:var(--color10, #2f2e41)" d="M9.328 9.063c.313.334.895.155.936-.301a.536.536 0 0 0-.001-.106c-.021-.202-.138-.385-.11-.599a.313.313 0 0 1 .057-.147c.25-.334.836.15 1.072-.153.145-.186-.025-.478.086-.685.146-.274.58-.139.852-.289.303-.167.284-.631.085-.913-.243-.344-.669-.528-1.089-.554s-.838.087-1.231.24c-.446.174-.888.414-1.163.806-.334.477-.366 1.118-.199 1.676.102.339.448.754.704 1.026z"/><path fill="#cacaca" style="fill:var(--color20, #cacaca)" d="M20.896 31.95H.055c-.014 0-.028-.006-.039-.016S0 31.91 0 31.895s.006-.028.016-.039.024-.016.039-.016h20.841c.015 0 .028.006.039.016s.016.024.016.039-.006.028-.016.039-.024.016-.039.016z"/><path fill="#fff" style="fill:var(--color5, #fff)" d="M18.435 7.464a.19.19 0 0 1-.13-.051l-.884-.821a.192.192 0 0 1 .26-.28l.749.695 1.481-1.481c.018-.018.039-.032.062-.042s.048-.015.073-.015.05.005.073.014a.2.2 0 0 1 .104.104.183.183 0 0 1 0 .146.2.2 0 0 1-.042.062l-1.612 1.612c-.018.018-.039.032-.062.042s-.048.015-.073.015z"/></symbol><symbol id="icon-telegram" viewBox="0 0 31 32"><path fill="#f4f4f4" style="fill:var(--color17, #f4f4f4)" d="M15.353 3.2a12.802 12.802 0 0 0-11.825 7.901 12.799 12.799 0 0 0 9.329 17.453 12.804 12.804 0 0 0 13.139-5.442 12.804 12.804 0 0 0-1.592-16.163A12.812 12.812 0 0 0 15.353 3.2zm4.069 19.395a.908.908 0 0 1-.918.563.905.905 0 0 1-.365-.113l-3.475-2.7-2.23 2.057a.38.38 0 0 1-.365.05l.428-3.825.014.011.009-.076s6.253-5.693 6.508-5.935c.258-.242.173-.294.173-.294.015-.295-.463 0-.463 0l-8.285 5.33-3.45-1.175s-.53-.19-.58-.608c-.052-.415.597-.64.597-.64l13.718-5.45s1.128-.502 1.128.33l-2.443 12.476z"/></symbol><symbol id="icon-arrow-right2" viewBox="0 0 32 32"><path d="m19.414 27.414 10-10a2 2 0 0 0 0-2.828l-10-10a2 2 0 1 0-2.828 2.828L23.172 14H4a2 2 0 1 0 0 4h19.172l-6.586 6.586c-.39.39-.586.902-.586 1.414s.195 1.024.586 1.414a2 2 0 0 0 2.828 0z"/></symbol><symbol id="icon-modal-close" viewBox="0 0 32 32"><path d="m26.667 7.303-1.97-1.97-7.808 7.808-7.808-7.808-1.97 1.97 7.808 7.808-7.808 7.808 1.97 1.97 7.808-7.808 7.808 7.808 1.97-1.97-7.808-7.808 7.808-7.808z"/></symbol></defs></svg>